<svg xmlns="http://www.w3.org/2000/svg" width="413" height="600"><path d="M-5-99l37-5 128-23z" fill="#3a5652" stroke="#3a5652" stroke-width="1.51"/><path d="M-107-88L-5-99l165-28z" fill="#2c4542" stroke="#2c4542" stroke-width="1.51"/><path d="M59 700l-120 4 293 14z" fill="#604e42" stroke="#604e42" stroke-width="1.51"/><path d="M341 684l-109 34 221-10z" fill="#7b724d" stroke="#7b724d" stroke-width="1.51"/><path d="M353-97l70 1 100-19z" fill="#596c52" stroke="#596c52" stroke-width="1.51"/><path d="M287-107l66 10 170-18z" fill="#517454" stroke="#517454" stroke-width="1.51"/><path d="M218-127l69 20 236-8z" fill="#5d8468" stroke="#5d8468" stroke-width="1.51"/><path d="M532 467l-31 74 36 70z" fill="#6e653a" stroke="#6e653a" stroke-width="1.51"/><path d="M532-40l-85 14 92 97z" fill="#524a3a" stroke="#524a3a" stroke-width="1.51"/><path d="M512 195l-48 101 93 8z" fill="#8f8d78" stroke="#8f8d78" stroke-width="1.51"/><path d="M537 132l-25 63 45 109z" fill="#7c6f5f" stroke="#7c6f5f" stroke-width="1.51"/><path d="M528 358l4 109 25-163z" fill="#90876c" stroke="#90876c" stroke-width="1.51"/><path d="M539 71l-2 61 20 172z" fill="#6c5a4d" stroke="#6c5a4d" stroke-width="1.51"/><path d="M453 708l-221 10 327-8z" fill="#73603a" stroke="#73603a" stroke-width="1.51"/><path d="M537 611l-84 97 106 2z" fill="#7b543a" stroke="#7b543a" stroke-width="1.51"/><path d="M557 304l-25 163 27 243z" fill="#766a43" stroke="#766a43" stroke-width="1.51"/><path d="M532 467l5 144 22 99z" fill="#775b3a" stroke="#775b3a" stroke-width="1.51"/><path d="M464 296l64 62 29-54z" fill="#9a9981" stroke="#9a9981" stroke-width="1.51"/><path d="M442 229l22 67 48-101z" fill="#7e876d" stroke="#7e876d" stroke-width="1.51"/><path d="M422 378l41 101 65-121z" fill="#7f8b62" stroke="#7f8b62" stroke-width="1.51"/><path d="M523-115l-76 89 85-14z" fill="#5c5848" stroke="#5c5848" stroke-width="1.51"/><path d="M528 358l-65 121 69-12z" fill="#7e7f58" stroke="#7e7f58" stroke-width="1.51"/><path d="M463 479l38 62 31-74z" fill="#6f7242" stroke="#6f7242" stroke-width="1.51"/><path d="M501 541l-32 54 68 16z" fill="#71633a" stroke="#71633a" stroke-width="1.51"/><path d="M469 595l-16 113 84-97z" fill="#745f3a" stroke="#745f3a" stroke-width="1.51"/><path d="M442 119l70 76 25-63z" fill="#5e5845" stroke="#5e5845" stroke-width="1.51"/><path d="M451 88l-9 31 95 13z" fill="#4d4c36" stroke="#4d4c36" stroke-width="1.51"/><path d="M447-26l4 114 88-17z" fill="#474531" stroke="#474531" stroke-width="1.51"/><path d="M451 88l86 44 2-61z" fill="#4b4030" stroke="#4b4030" stroke-width="1.51"/><path d="M423-96l24 70 76-89z" fill="#5a634c" stroke="#5a634c" stroke-width="1.51"/><path d="M464 296l-42 82 106-20z" fill="#8d9a78" stroke="#8d9a78" stroke-width="1.51"/><path d="M459 560l10 35 32-54z" fill="#6b6a3a" stroke="#6b6a3a" stroke-width="1.51"/><path d="M442 119v110l70-34z" fill="#666c53" stroke="#666c53" stroke-width="1.51"/><path d="M447-26l-47 39 51 75z" fill="#435035" stroke="#435035" stroke-width="1.51"/><path d="M463 479l-4 81 42-19z" fill="#676f3a" stroke="#676f3a" stroke-width="1.51"/><path d="M134 698l-75 2 173 18z" fill="#807364" stroke="#807364" stroke-width="1.51"/><path d="M442 119l-44 94 44 16z" fill="#627556" stroke="#627556" stroke-width="1.51"/><path d="M354 590l-13 94 112 24z" fill="#6b6d3c" stroke="#6b6d3c" stroke-width="1.51"/><path d="M365 477l-14 58 108 25z" fill="#587c3a" stroke="#587c3a" stroke-width="1.51"/><path d="M365 477l94 83 4-81z" fill="#627a3f" stroke="#627a3f" stroke-width="1.51"/><path d="M422 378l-57 99 98 2z" fill="#6d8b55" stroke="#6d8b55" stroke-width="1.51"/><path d="M442 229l-66 57 88 10z" fill="#839e7b" stroke="#839e7b" stroke-width="1.51"/><path d="M376 286l46 92 42-82z" fill="#89a881" stroke="#89a881" stroke-width="1.51"/><path d="M459 560l-105 30 115 5z" fill="#67703a" stroke="#67703a" stroke-width="1.51"/><path d="M354 590l99 118 16-113z" fill="#6b693a" stroke="#6b693a" stroke-width="1.51"/><path d="M382 119l16 94 44-94z" fill="#506747" stroke="#506747" stroke-width="1.51"/><path d="M351 535l3 55 105-30z" fill="#5d783a" stroke="#5d783a" stroke-width="1.51"/><path d="M400 13l-44 40 95 35z" fill="#3a4e30" stroke="#3a4e30" stroke-width="1.51"/><path d="M356 53l26 66 69-31z" fill="#374c2c" stroke="#374c2c" stroke-width="1.51"/><path d="M398 213l-22 73 66-57z" fill="#73936f" stroke="#73936f" stroke-width="1.51"/><path d="M382 119h60l9-31z" fill="#445135" stroke="#445135" stroke-width="1.51"/><path d="M343 401l22 76 57-99z" fill="#6f9963" stroke="#6f9963" stroke-width="1.51"/><path d="M353-97l47 110 23-109z" fill="#4a6949" stroke="#4a6949" stroke-width="1.51"/><path d="M423-96L400 13l47-39z" fill="#4c5f43" stroke="#4c5f43" stroke-width="1.51"/><path d="M376 286l-33 115 79-23z" fill="#7ca778" stroke="#7ca778" stroke-width="1.51"/><path d="M301 284l42 117 33-115z" fill="#8ebb95" stroke="#8ebb95" stroke-width="1.51"/><path d="M301 284l75 2 22-73z" fill="#7ea884" stroke="#7ea884" stroke-width="1.51"/><path d="M382 119l-109 6 125 88z" fill="#567556" stroke="#567556" stroke-width="1.51"/><path d="M273 125l-9 91 134-3z" fill="#6c9076" stroke="#6c9076" stroke-width="1.51"/><path d="M305 26l51 27 44-40z" fill="#435e41" stroke="#435e41" stroke-width="1.51"/><path d="M353-97L305 26l95-13z" fill="#4b6a4d" stroke="#4b6a4d" stroke-width="1.51"/><path d="M264 216l37 68 97-71z" fill="#7fa78a" stroke="#7fa78a" stroke-width="1.51"/><path d="M301 284l-18 105 60 12z" fill="#8fbc97" stroke="#8fbc97" stroke-width="1.51"/><path d="M253-14l52 40 48-123z" fill="#587a64" stroke="#587a64" stroke-width="1.51"/><path d="M356 53l-83 72 109-6z" fill="#466045" stroke="#466045" stroke-width="1.51"/><path d="M271 679l-39 39 109-34z" fill="#8b8567" stroke="#8b8567" stroke-width="1.51"/><path d="M287-107l-34 93 100-83z" fill="#618671" stroke="#618671" stroke-width="1.51"/><path d="M255 644l86 40 13-94z" fill="#7b8358" stroke="#7b8358" stroke-width="1.51"/><path d="M343 401l-79 38 101 38z" fill="#79a372" stroke="#79a372" stroke-width="1.51"/><path d="M295 534l56 1 14-58z" fill="#658c51" stroke="#658c51" stroke-width="1.51"/><path d="M264 439l31 95 70-57z" fill="#749d69" stroke="#749d69" stroke-width="1.51"/><path d="M255 644l16 35 70 5z" fill="#868663" stroke="#868663" stroke-width="1.51"/><path d="M351 535l-56-1 59 56z" fill="#6a8851" stroke="#6a8851" stroke-width="1.51"/><path d="M305 26l-32 99 83-72z" fill="#47624b" stroke="#47624b" stroke-width="1.51"/><path d="M295 534l-40 110 99-54z" fill="#788d5f" stroke="#788d5f" stroke-width="1.51"/><path d="M283 389l-19 50 79-38z" fill="#87b38a" stroke="#87b38a" stroke-width="1.51"/><path d="M205 27l10 88 58 10z" fill="#5b796d" stroke="#5b796d" stroke-width="1.51"/><path d="M191 308l20 77 72 4z" fill="#a4d5bc" stroke="#a4d5bc" stroke-width="1.51"/><path d="M201 559l54 85 40-110z" fill="#859e75" stroke="#859e75" stroke-width="1.51"/><path d="M191 308l92 81 18-105z" fill="#a3d4ba" stroke="#a3d4ba" stroke-width="1.51"/><path d="M205 27l68 98 32-99z" fill="#547161" stroke="#547161" stroke-width="1.51"/><path d="M253-14l-48 41 100-1z" fill="#5d7e6f" stroke="#5d7e6f" stroke-width="1.51"/><path d="M264 439l-63 120 94-25z" fill="#7ca778" stroke="#7ca778" stroke-width="1.51"/><path d="M264 216l-68 24 105 44z" fill="#94c1ad" stroke="#94c1ad" stroke-width="1.51"/><path d="M196 240l-5 68 110-24z" fill="#a7d8c8" stroke="#a7d8c8" stroke-width="1.51"/><path d="M201 559l36 85h18z" fill="#8f9e7d" stroke="#8f9e7d" stroke-width="1.51"/><path d="M218-127l35 113 34-93z" fill="#6d9687" stroke="#6d9687" stroke-width="1.51"/><path d="M201 429v130l63-120z" fill="#8cb993" stroke="#8cb993" stroke-width="1.51"/><path d="M215 115l49 101 9-91z" fill="#6e9281" stroke="#6e9281" stroke-width="1.51"/><path d="M211 385l53 54 19-50z" fill="#94c2a0" stroke="#94c2a0" stroke-width="1.51"/><path d="M218-127L184-18l69 4z" fill="#709990" stroke="#709990" stroke-width="1.51"/><path d="M215 115l-19 125 68-24z" fill="#84ad9f" stroke="#84ad9f" stroke-width="1.51"/><path d="M211 385l-10 44 63 10z" fill="#98c7a7" stroke="#98c7a7" stroke-width="1.51"/><path d="M255 644h-18l34 35z" fill="#8e9273" stroke="#8e9273" stroke-width="1.51"/><path d="M237 644l-5 74 39-39z" fill="#939176" stroke="#939176" stroke-width="1.51"/><path d="M143 523l58 36V429z" fill="#7da881" stroke="#7da881" stroke-width="1.51"/><path d="M184-18l21 45 48-41z" fill="#698e85" stroke="#698e85" stroke-width="1.51"/><path d="M113 221l83 19 19-125z" fill="#79a095" stroke="#79a095" stroke-width="1.51"/><path d="M205 27l-59 59 69 29z" fill="#56736b" stroke="#56736b" stroke-width="1.51"/><path d="M160-127l24 109 34-109z" fill="#709a93" stroke="#709a93" stroke-width="1.51"/><path d="M201 559l-54 64 90 21z" fill="#8fa082" stroke="#8fa082" stroke-width="1.51"/><path d="M134 698l98 20 5-74z" fill="#9c9985" stroke="#9c9985" stroke-width="1.51"/><path d="M147 623l-13 75 103-54z" fill="#8a8c75" stroke="#8a8c75" stroke-width="1.51"/><path d="M132 449l11 74 58-94z" fill="#7ba382" stroke="#7ba382" stroke-width="1.51"/><path d="M191 308l-36 52 56 25z" fill="#a1d1bd" stroke="#a1d1bd" stroke-width="1.51"/><path d="M96 138l17 83 102-106z" fill="#5d7b73" stroke="#5d7b73" stroke-width="1.51"/><path d="M146 86l-50 52 119-23z" fill="#516c64" stroke="#516c64" stroke-width="1.51"/><path d="M155 360l46 69 10-44z" fill="#9ac8af" stroke="#9ac8af" stroke-width="1.51"/><path d="M155 360l-23 89 69-20z" fill="#87b398" stroke="#87b398" stroke-width="1.51"/><path d="M184-18L99 0l106 27z" fill="#55756e" stroke="#55756e" stroke-width="1.51"/><path d="M99 0l47 86 59-59z" fill="#4a655f" stroke="#4a655f" stroke-width="1.51"/><path d="M113 221l19 109 59-22z" fill="#91beb2" stroke="#91beb2" stroke-width="1.51"/><path d="M113 221l78 87 5-68z" fill="#8fbbaf" stroke="#8fbbaf" stroke-width="1.51"/><path d="M143 523l4 100 54-64z" fill="#799271" stroke="#799271" stroke-width="1.51"/><path d="M160-127L99 0l85-18z" fill="#577872" stroke="#577872" stroke-width="1.51"/><path d="M132 330l23 30 36-52z" fill="#97c5b4" stroke="#97c5b4" stroke-width="1.51"/><path d="M16 542v60l127-79z" fill="#465739" stroke="#465739" stroke-width="1.51"/><path d="M143 523L16 602l131 21z" fill="#5e6d4f" stroke="#5e6d4f" stroke-width="1.51"/><path d="M28 367l104 82 23-89z" fill="#70957f" stroke="#70957f" stroke-width="1.51"/><path d="M32-104L99 0l61-127z" fill="#45625e" stroke="#45625e" stroke-width="1.51"/><path d="M132 449l-63 21 74 53z" fill="#638564" stroke="#638564" stroke-width="1.51"/><path d="M132 330L28 367l127-7z" fill="#789e8d" stroke="#789e8d" stroke-width="1.51"/><path d="M96 138l-25 62 42 21z" fill="#516d65" stroke="#516d65" stroke-width="1.51"/><path d="M28 367l41 103 63-21z" fill="#5b7b62" stroke="#5b7b62" stroke-width="1.51"/><path d="M113 221l-90 76 109 33z" fill="#74998f" stroke="#74998f" stroke-width="1.51"/><path d="M99 0L28 85l118 1z" fill="#2e413c" stroke="#2e413c" stroke-width="1.51"/><path d="M59 700l75-2 13-75z" fill="#6e6755" stroke="#6e6755" stroke-width="1.51"/><path d="M16 602l43 98 88-77z" fill="#585640" stroke="#585640" stroke-width="1.51"/><path d="M28 85l68 53 50-52z" fill="#324640" stroke="#324640" stroke-width="1.51"/><path d="M69 470l-53 72 127-19z" fill="#4a6745" stroke="#4a6745" stroke-width="1.51"/><path d="M23 297l5 70 104-37z" fill="#68897b" stroke="#68897b" stroke-width="1.51"/><path d="M32-104L38 0h61z" fill="#2d433f" stroke="#2d433f" stroke-width="1.51"/><path d="M38 0L28 85 99 0z" fill="#243530" stroke="#243530" stroke-width="1.51"/><path d="M71 200l-48 97 90-76z" fill="#5a7870" stroke="#5a7870" stroke-width="1.51"/><path d="M21 140l50 60 25-62z" fill="#3a5049" stroke="#3a5049" stroke-width="1.51"/><path d="M28 85l-7 55 75-2z" fill="#273832" stroke="#273832" stroke-width="1.51"/><path d="M-5-99L-8-9l40-95z" fill="#29403d" stroke="#29403d" stroke-width="1.51"/><path d="M32-104L-8-9l46 9z" fill="#233633" stroke="#233633" stroke-width="1.51"/><path d="M-10 381l-51 95 130-6z" fill="#48634b" stroke="#48634b" stroke-width="1.51"/><path d="M28 367l-38 14 79 89z" fill="#4a6550" stroke="#4a6550" stroke-width="1.51"/><path d="M-14 194l37 103 48-97z" fill="#445c55" stroke="#445c55" stroke-width="1.51"/><path d="M21 140l-35 54 85 6z" fill="#31453f" stroke="#31453f" stroke-width="1.51"/><path d="M-61 476l77 66 53-72z" fill="#3b5436" stroke="#3b5436" stroke-width="1.51"/><path d="M16 602l-21-2 64 100z" fill="#423e2a" stroke="#423e2a" stroke-width="1.51"/><path d="M-5 600l-56 104 120-4z" fill="#4a4131" stroke="#4a4131" stroke-width="1.51"/><path d="M16 542l-36 25 36 35z" fill="#3e4b30" stroke="#3e4b30" stroke-width="1.51"/><path d="M-14 194l-54 79 91 24z" fill="#55746d" stroke="#55746d" stroke-width="1.51"/><path d="M-8-9l-56 99 92-5z" fill="#1b2b28" stroke="#1b2b28" stroke-width="1.51"/><path d="M23 297l-33 84 38-14z" fill="#567566" stroke="#567566" stroke-width="1.51"/><path d="M-8-9l36 94L38 0z" fill="#1a2925" stroke="#1a2925" stroke-width="1.51"/><path d="M-20 567l15 33 21 2z" fill="#424a31" stroke="#424a31" stroke-width="1.51"/><path d="M-61 128l82 12 7-55z" fill="#23332f" stroke="#23332f" stroke-width="1.51"/><path d="M-64 90l3 38 89-43z" fill="#22332f" stroke="#22332f" stroke-width="1.51"/><path d="M-68 273l58 108 33-84z" fill="#63867b" stroke="#63867b" stroke-width="1.51"/><path d="M-61 476l41 91 36-25z" fill="#3d5637" stroke="#3d5637" stroke-width="1.51"/><path d="M-61 128l47 66 35-54z" fill="#314641" stroke="#314641" stroke-width="1.51"/><path d="M-68 273l-59 26 117 82z" fill="#6c948a" stroke="#6c948a" stroke-width="1.51"/><path d="M-127 299l-20 57 137 25z" fill="#6d9587" stroke="#6d9587" stroke-width="1.51"/><path d="M-111-46l47 136L-8-9z" fill="#29403d" stroke="#29403d" stroke-width="1.51"/><path d="M-102 667l41 37 56-104z" fill="#55503f" stroke="#55503f" stroke-width="1.51"/><path d="M-20 567l-84 35 99-2z" fill="#4a553c" stroke="#4a553c" stroke-width="1.51"/><path d="M-104 602l2 65 97-67z" fill="#545843" stroke="#545843" stroke-width="1.51"/><path d="M-111-46L-8-9l3-90z" fill="#2f4846" stroke="#2f4846" stroke-width="1.51"/><path d="M-107-88l-4 42L-5-99z" fill="#385755" stroke="#385755" stroke-width="1.51"/><path d="M-61 476l-52 65 93 26z" fill="#466242" stroke="#466242" stroke-width="1.51"/><path d="M-122 460l61 16 51-95z" fill="#54755e" stroke="#54755e" stroke-width="1.51"/><path d="M-147 356l25 104 112-79z" fill="#628774" stroke="#628774" stroke-width="1.51"/><path d="M-61 128l-80 103 127-37z" fill="#45625d" stroke="#45625d" stroke-width="1.51"/><path d="M-141 231l73 42 54-79z" fill="#577a73" stroke="#577a73" stroke-width="1.51"/><path d="M-111-46l-26 124 73 12z" fill="#2d4543" stroke="#2d4543" stroke-width="1.51"/><path d="M-113 541l9 61 84-35z" fill="#4f6146" stroke="#4f6146" stroke-width="1.51"/><path d="M-137 78l-2 64 75-52z" fill="#304946" stroke="#304946" stroke-width="1.51"/><path d="M-122 460l9 81 52-65z" fill="#507355" stroke="#507355" stroke-width="1.51"/><path d="M-139 142l-2 89 80-103z" fill="#476661" stroke="#476661" stroke-width="1.51"/><path d="M-64 90l-75 52 78-14z" fill="#324a46" stroke="#324a46" stroke-width="1.51"/><path d="M-141 231l14 68 59-26z" fill="#6d958e" stroke="#6d958e" stroke-width="1.51"/><path d="M-104 602l-9-61 11 126z" fill="#59644d" stroke="#59644d" stroke-width="1.51"/><path d="M-113 541l-34-185 45 311z" fill="#4f7352" stroke="#4f7352" stroke-width="1.51"/><path d="M-137 78l26-124 4-42z" fill="#375654" stroke="#375654" stroke-width="1.51"/><path d="M-122 460l-25-104 34 185z" fill="#5e856b" stroke="#5e856b" stroke-width="1.51"/><path d="M-141 231l-6 125 20-57z" fill="#7caba4" stroke="#7caba4" stroke-width="1.51"/><path d="M-147 356l6-125 2-89z" fill="#69928c" stroke="#69928c" stroke-width="1.51"/></svg>