<svg xmlns="http://www.w3.org/2000/svg" width="767" height="600"><path d="M217 708l-292 18 473 5z" fill="#6f7074" stroke="#6f7074" stroke-width="1.51"/><path d="M459 709l-61 22 205-30z" fill="gray" stroke="gray" stroke-width="1.51"/><path d="M306-122l166 22 151-21z" fill="#a7b0cf" stroke="#a7b0cf" stroke-width="1.51"/><path d="M603 701l-205 30 369-8z" fill="#747474" stroke="#747474" stroke-width="1.51"/><path d="M306-122l317 1 184-12z" fill="#9fa7c7" stroke="#9fa7c7" stroke-width="1.51"/><path d="M-13-130l319 8 501-11z" fill="#a1a9ca" stroke="#a1a9ca" stroke-width="1.51"/><path d="M865 214l-24 79 35 149z" fill="#828383" stroke="#828383" stroke-width="1.51"/><path d="M841 293l-8 108 43 41z" fill="#898989" stroke="#898989" stroke-width="1.51"/><path d="M876 442l-75-9 85 100z" fill="#7f7f7f" stroke="#7f7f7f" stroke-width="1.51"/><path d="M848 615l12 66 26-148z" fill="#424242" stroke="#424242" stroke-width="1.51"/><path d="M847 39l-87 102 137-23z" fill="#797b81" stroke="#797b81" stroke-width="1.51"/><path d="M760 141l49 58 88-81z" fill="#8b8c8d" stroke="#8b8c8d" stroke-width="1.51"/><path d="M809 199l56 15 32-96z" fill="#7f7f80" stroke="#7f7f80" stroke-width="1.51"/><path d="M890-53l-43 92 50 79z" fill="#5a5d6a" stroke="#5a5d6a" stroke-width="1.51"/><path d="M876 442l10 91 11-415z" fill="#7b7b7b" stroke="#7b7b7b" stroke-width="1.51"/><path d="M865 214l11 228 21-324z" fill="#79797a" stroke="#79797a" stroke-width="1.51"/><path d="M801 433l-45 120 130-20z" fill="#7e7e7e" stroke="#7e7e7e" stroke-width="1.51"/><path d="M752 13l95 26 43-92z" fill="#626677" stroke="#626677" stroke-width="1.51"/><path d="M872-102l-65-31 83 80z" fill="#424a62" stroke="#424a62" stroke-width="1.51"/><path d="M807-133L752 13l138-66z" fill="#595f75" stroke="#595f75" stroke-width="1.51"/><path d="M756 553l92 62 38-82z" fill="#5f5f5f" stroke="#5f5f5f" stroke-width="1.51"/><path d="M801 394l32 7 8-108z" fill="#919192" stroke="#919192" stroke-width="1.51"/><path d="M758 50l2 91 87-102z" fill="#848790" stroke="#848790" stroke-width="1.51"/><path d="M809 199l32 94 24-79z" fill="#888889" stroke="#888889" stroke-width="1.51"/><path d="M833 401l-32 32 75 9z" fill="#8f8f8f" stroke="#8f8f8f" stroke-width="1.51"/><path d="M623-121l48 19 136-31z" fill="#737b98" stroke="#737b98" stroke-width="1.51"/><path d="M848 615l-86 12 98 54z" fill="#434343" stroke="#434343" stroke-width="1.51"/><path d="M763 301l38 93 40-101z" fill="#99999a" stroke="#99999a" stroke-width="1.51"/><path d="M762 627l5 96 93-42z" fill="#3e3e3e" stroke="#3e3e3e" stroke-width="1.51"/><path d="M538 696l-79 13 144-8z" fill="#868787" stroke="#868787" stroke-width="1.51"/><path d="M809 199l-46 102 78-8z" fill="#959697" stroke="#959697" stroke-width="1.51"/><path d="M752 13l6 37 89-11z" fill="#7b7e8c" stroke="#7b7e8c" stroke-width="1.51"/><path d="M756 553l6 74 86-12z" fill="#606060" stroke="#606060" stroke-width="1.51"/><path d="M671-102l81 115 55-146z" fill="#6e758e" stroke="#6e758e" stroke-width="1.51"/><path d="M801 394v39l32-32z" fill="#989898" stroke="#989898" stroke-width="1.51"/><path d="M675 437l81 116 45-120z" fill="#a7a7a7" stroke="#a7a7a7" stroke-width="1.51"/><path d="M760 141l-33 22 82 36z" fill="#a1a2a3" stroke="#a1a2a3" stroke-width="1.51"/><path d="M727 163l-10 85 92-49z" fill="#a8a9a9" stroke="#a8a9a9" stroke-width="1.51"/><path d="M717 248l46 53 46-102z" fill="#a5a6a6" stroke="#a5a6a6" stroke-width="1.51"/><path d="M675 437l-18 42 99 74z" fill="#b2b2b2" stroke="#b2b2b2" stroke-width="1.51"/><path d="M674 400l1 37 126-4z" fill="#bdbdbe" stroke="#bdbdbe" stroke-width="1.51"/><path d="M674 400l127 33v-39z" fill="#acacad" stroke="#acacad" stroke-width="1.51"/><path d="M763 301l-89 99 127-6z" fill="#b0b0b0" stroke="#b0b0b0" stroke-width="1.51"/><path d="M671-102l6 102 75 13z" fill="#8a8fa4" stroke="#8a8fa4" stroke-width="1.51"/><path d="M657 479l19 62 80 12z" fill="#a2a2a2" stroke="#a2a2a2" stroke-width="1.51"/><path d="M758 50l-75 16 77 75z" fill="#9b9da6" stroke="#9b9da6" stroke-width="1.51"/><path d="M683 66l44 97 33-22z" fill="#a9aaaf" stroke="#a9aaaf" stroke-width="1.51"/><path d="M756 553l-75 34 81 40z" fill="#787878" stroke="#787878" stroke-width="1.51"/><path d="M672 296l2 104 89-99z" fill="#bfc0c0" stroke="#bfc0c0" stroke-width="1.51"/><path d="M674 671l-71 30 164 22z" fill="#5c5c5c" stroke="#5c5c5c" stroke-width="1.51"/><path d="M762 627l-88 44 93 52z" fill="#545454" stroke="#545454" stroke-width="1.51"/><path d="M717 248l-45 48 91 5z" fill="#b8b8b9" stroke="#b8b8b9" stroke-width="1.51"/><path d="M681 587l-7 84 88-44z" fill="#717171" stroke="#717171" stroke-width="1.51"/><path d="M683 66l-29 44 73 53z" fill="#b4b5bb" stroke="#b4b5bb" stroke-width="1.51"/><path d="M752 13l-69 53 75-16z" fill="#9194a1" stroke="#9194a1" stroke-width="1.51"/><path d="M676 541l5 46 75-34z" fill="#8f8f8f" stroke="#8f8f8f" stroke-width="1.51"/><path d="M677 0l6 66 69-53z" fill="#979baa" stroke="#979baa" stroke-width="1.51"/><path d="M-11 710l-64 16 292-18z" fill="#565a69" stroke="#565a69" stroke-width="1.51"/><path d="M599 227l118 21 10-85z" fill="#c4c4c6" stroke="#c4c4c6" stroke-width="1.51"/><path d="M654 110l-55 117 128-64z" fill="#cbcbcd" stroke="#cbcbcd" stroke-width="1.51"/><path d="M672 296l-25 100 27 4z" fill="#d0d0d0" stroke="#d0d0d0" stroke-width="1.51"/><path d="M657 479l-11 31 30 31z" fill="#b7b7b7" stroke="#b7b7b7" stroke-width="1.51"/><path d="M671-102l-49 68 55 34z" fill="#969cb3" stroke="#969cb3" stroke-width="1.51"/><path d="M599 227l73 69 45-48z" fill="#cdcdce" stroke="#cdcdce" stroke-width="1.51"/><path d="M598 306l49 90 25-100z" fill="#d9d9da" stroke="#d9d9da" stroke-width="1.51"/><path d="M676 541l-106 67 111-21z" fill="#9f9f9f" stroke="#9f9f9f" stroke-width="1.51"/><path d="M619 653l55 18 7-84z" fill="#7f7f7f" stroke="#7f7f7f" stroke-width="1.51"/><path d="M677 0l-60 61 66 5z" fill="#acafbd" stroke="#acafbd" stroke-width="1.51"/><path d="M617 61l37 49 29-44z" fill="#b9bbc5" stroke="#b9bbc5" stroke-width="1.51"/><path d="M599 227l-1 79 74-10z" fill="#dddedf" stroke="#dddedf" stroke-width="1.51"/><path d="M674 400l-27-4 28 41z" fill="#d1d1d2" stroke="#d1d1d2" stroke-width="1.51"/><path d="M646 510l-76 98 106-67z" fill="#aeaeae" stroke="#aeaeae" stroke-width="1.51"/><path d="M570 608l49 45 62-66z" fill="#959595" stroke="#959595" stroke-width="1.51"/><path d="M623-121l-1 87 49-68z" fill="#9299b4" stroke="#9299b4" stroke-width="1.51"/><path d="M619 653l-16 48 71-30z" fill="#787878" stroke="#787878" stroke-width="1.51"/><path d="M622-34l-5 95 60-61z" fill="#acb0c1" stroke="#acb0c1" stroke-width="1.51"/><path d="M647 396l10 83 18-42z" fill="#d4d4d4" stroke="#d4d4d4" stroke-width="1.51"/><path d="M538 151l61 76 55-117z" fill="#e4e4e6" stroke="#e4e4e6" stroke-width="1.51"/><path d="M541 555l29 53 76-98z" fill="#bebebe" stroke="#bebebe" stroke-width="1.51"/><path d="M557 389l-22 79 112-72z" fill="#f4f4f4" stroke="#f4f4f4" stroke-width="1.51"/><path d="M598 306l-41 83 90 7z" fill="#eaeaea" stroke="#eaeaea" stroke-width="1.51"/><path d="M647 396l-112 72 122 11z" fill="#e7e7e7" stroke="#e7e7e7" stroke-width="1.51"/><path d="M535 468l111 42 11-31z" fill="#d5d5d5" stroke="#d5d5d5" stroke-width="1.51"/><path d="M617 61l-79 90 116-41z" fill="#d5d6dd" stroke="#d5d6dd" stroke-width="1.51"/><path d="M571 284l27 22 1-79z" fill="#ebebec" stroke="#ebebec" stroke-width="1.51"/><path d="M535 468l6 87 105-45z" fill="#d9d9d9" stroke="#d9d9d9" stroke-width="1.51"/><path d="M554-34l-29 83 92 12z" fill="#cdd1e1" stroke="#cdd1e1" stroke-width="1.51"/><path d="M525 49l13 102 79-90z" fill="#e0e2eb" stroke="#e0e2eb" stroke-width="1.51"/><path d="M554-34l63 95 5-95z" fill="#b9bdd0" stroke="#b9bdd0" stroke-width="1.51"/><path d="M472-100l61 33 90-54z" fill="#afb6d3" stroke="#afb6d3" stroke-width="1.51"/><path d="M554-34h68l1-87z" fill="#a8aec7" stroke="#a8aec7" stroke-width="1.51"/><path d="M533-67l21 33 69-87z" fill="#b0b7d1" stroke="#b0b7d1" stroke-width="1.51"/><path d="M538 696l65 5 16-48z" fill="#858585" stroke="#858585" stroke-width="1.51"/><path d="M570 608l-32 88 81-43z" fill="#969696" stroke="#969696" stroke-width="1.51"/><path d="M571 284l-14 105 41-83z" fill="#f3f3f4" stroke="#f3f3f4" stroke-width="1.51"/><path d="M538 151l-29 57 90 19z" fill="#f5f6f7" stroke="#f5f6f7" stroke-width="1.51"/><path d="M509 208l62 76 28-57z" fill="#f6f6f7" stroke="#f6f6f7" stroke-width="1.51"/><path d="M287 704l-70 4 181 23z" fill="#7b7b7c" stroke="#7b7b7c" stroke-width="1.51"/><path d="M525 49l-34 25 47 77z" fill="#e2e4ec" stroke="#e2e4ec" stroke-width="1.51"/><path d="M489 11l36 38 29-83z" fill="#cbcfe1" stroke="#cbcfe1" stroke-width="1.51"/><path d="M492 272l-35 100 100 17z" fill="#f9fafa" stroke="#f9fafa" stroke-width="1.51"/><path d="M468 625l70 71 32-88z" fill="#a1a1a1" stroke="#a1a1a1" stroke-width="1.51"/><path d="M492 272l65 117 14-105z" fill="#f9fafa" stroke="#f9fafa" stroke-width="1.51"/><path d="M509 208l-17 64 79 12z" fill="#f7f7f8" stroke="#f7f7f8" stroke-width="1.51"/><path d="M541 555l-73 70 102-17z" fill="#b7b7b7" stroke="#b7b7b7" stroke-width="1.51"/><path d="M535 468l-68-5 74 92z" fill="#e6e6e6" stroke="#e6e6e6" stroke-width="1.51"/><path d="M467 463l68 5 22-79z" fill="#fefefe" stroke="#fefefe" stroke-width="1.51"/><path d="M457 372l10 91 90-74z" fill="#fbfbfc" stroke="#fbfbfc" stroke-width="1.51"/><path d="M533-67l-44 78 65-45z" fill="#c1c6dc" stroke="#c1c6dc" stroke-width="1.51"/><path d="M468 625l-9 84 79-13z" fill="#919191" stroke="#919191" stroke-width="1.51"/><path d="M491 74l-42 94 89-17z" fill="#ecedf1" stroke="#ecedf1" stroke-width="1.51"/><path d="M433 564l35 61 73-70z" fill="#bcbcbc" stroke="#bcbcbc" stroke-width="1.51"/><path d="M467 463l-34 101 108-9z" fill="#d5d5d6" stroke="#d5d5d6" stroke-width="1.51"/><path d="M489 212l3 60 17-64z" fill="#f5f5f7" stroke="#f5f5f7" stroke-width="1.51"/><path d="M449 168l60 40 29-57z" fill="#f3f3f5" stroke="#f3f3f5" stroke-width="1.51"/><path d="M472-100l17 111 44-78z" fill="#b9bfd8" stroke="#b9bfd8" stroke-width="1.51"/><path d="M306-122l103 42 63-20z" fill="#a9b1cf" stroke="#a9b1cf" stroke-width="1.51"/><path d="M449 168l40 44 20-4z" fill="#f3f3f5" stroke="#f3f3f5" stroke-width="1.51"/><path d="M472-100l-56 57 73 54z" fill="#bbc0d8" stroke="#bbc0d8" stroke-width="1.51"/><path d="M489 11l2 63 34-25z" fill="#d4d8e5" stroke="#d4d8e5" stroke-width="1.51"/><path d="M122 693l-133 17 228-2z" fill="#686a74" stroke="#686a74" stroke-width="1.51"/><path d="M449 168l-85 22 125 22z" fill="#f1f2f4" stroke="#f1f2f4" stroke-width="1.51"/><path d="M364 190l-5 95 130-73z" fill="#f2f2f4" stroke="#f2f2f4" stroke-width="1.51"/><path d="M416-43L349 79l140-68z" fill="#cacedf" stroke="#cacedf" stroke-width="1.51"/><path d="M489 11L349 79l142-5z" fill="#d5d8e5" stroke="#d5d8e5" stroke-width="1.51"/><path d="M349 79l100 89 42-94z" fill="#e3e5ec" stroke="#e3e5ec" stroke-width="1.51"/><path d="M489 212l-130 73 133-13z" fill="#f4f4f6" stroke="#f4f4f6" stroke-width="1.51"/><path d="M359 285l98 87 35-100z" fill="#f6f6f8" stroke="#f6f6f8" stroke-width="1.51"/><path d="M349 79l7 74 93 15z" fill="#e9eaef" stroke="#e9eaef" stroke-width="1.51"/><path d="M359 285l19 91 79-4z" fill="#f6f6f8" stroke="#f6f6f8" stroke-width="1.51"/><path d="M328 484l105 80 34-101z" fill="#dfdfdf" stroke="#dfdfdf" stroke-width="1.51"/><path d="M375 425l-47 59 139-21z" fill="#f4f4f5" stroke="#f4f4f5" stroke-width="1.51"/><path d="M457 372l-82 53 92 38z" fill="#fafafb" stroke="#fafafb" stroke-width="1.51"/><path d="M408 615l51 94 9-84z" fill="#9b9b9c" stroke="#9b9b9c" stroke-width="1.51"/><path d="M433 564l-25 51 60 10z" fill="#b1b2b2" stroke="#b1b2b2" stroke-width="1.51"/><path d="M409-80l7 37 56-57z" fill="#b2b8d4" stroke="#b2b8d4" stroke-width="1.51"/><path d="M378 376l-3 49 82-53z" fill="#f8f8f9" stroke="#f8f8f9" stroke-width="1.51"/><path d="M408 615l-10 116 61-22z" fill="#8b8c8c" stroke="#8b8c8c" stroke-width="1.51"/><path d="M328 484l22 87 83-7z" fill="#cccccd" stroke="#cccccd" stroke-width="1.51"/><path d="M356 153l8 37 85-22z" fill="#eff0f2" stroke="#eff0f2" stroke-width="1.51"/><path d="M-13-130l169 53 150-45z" fill="#939dc2" stroke="#939dc2" stroke-width="1.51"/><path d="M299-37l50 116 67-122z" fill="#c3c8db" stroke="#c3c8db" stroke-width="1.51"/><path d="M350 571l58 44 25-51z" fill="#b9b9ba" stroke="#b9b9ba" stroke-width="1.51"/><path d="M328 484l-13 39 35 48z" fill="#d2d2d3" stroke="#d2d2d3" stroke-width="1.51"/><path d="M287 704l111 27 10-116z" fill="#8a8a8b" stroke="#8a8a8b" stroke-width="1.51"/><path d="M329 595l-42 109 121-89z" fill="#9e9e9f" stroke="#9e9e9f" stroke-width="1.51"/><path d="M409-80L299-37l117-6z" fill="#b5bcd5" stroke="#b5bcd5" stroke-width="1.51"/><path d="M306-122l-7 85 110-43z" fill="#adb5d0" stroke="#adb5d0" stroke-width="1.51"/><path d="M350 571l-21 24 79 20z" fill="#b3b3b4" stroke="#b3b3b4" stroke-width="1.51"/><path d="M299-37l-29 74 79 42z" fill="#c9cdde" stroke="#c9cdde" stroke-width="1.51"/><path d="M297 308l23 72 39-95z" fill="#f3f3f5" stroke="#f3f3f5" stroke-width="1.51"/><path d="M318 189l41 96 5-95z" fill="#f0f0f2" stroke="#f0f0f2" stroke-width="1.51"/><path d="M320 380l55 45 3-49z" fill="#f6f7f8" stroke="#f6f7f8" stroke-width="1.51"/><path d="M359 285l-39 95 58-4z" fill="#f4f5f6" stroke="#f4f5f6" stroke-width="1.51"/><path d="M320 380l8 104 47-59z" fill="#f7f8f9" stroke="#f7f8f9" stroke-width="1.51"/><path d="M349 79l-67 51 74 23z" fill="#e4e5eb" stroke="#e4e5eb" stroke-width="1.51"/><path d="M318 189l-21 119 62-23z" fill="#f0f1f3" stroke="#f0f1f3" stroke-width="1.51"/><path d="M356 153l-38 36 46 1z" fill="#eeeff1" stroke="#eeeff1" stroke-width="1.51"/><path d="M282 130l36 59 38-36z" fill="#ecedf0" stroke="#ecedf0" stroke-width="1.51"/><path d="M315 523l14 72 21-24z" fill="#c0c0c1" stroke="#c0c0c1" stroke-width="1.51"/><path d="M270 37l12 93 67-51z" fill="#d8dbe5" stroke="#d8dbe5" stroke-width="1.51"/><path d="M156-77l101-4 49-41z" fill="#a7aecc" stroke="#a7aecc" stroke-width="1.51"/><path d="M257-81l42 44 7-85z" fill="#acb3cf" stroke="#acb3cf" stroke-width="1.51"/><path d="M240 312l57-4 21-119z" fill="#f0f0f2" stroke="#f0f0f2" stroke-width="1.51"/><path d="M196 202l44 110 78-123z" fill="#edeef0" stroke="#edeef0" stroke-width="1.51"/><path d="M320 380l-76 111 84-7z" fill="#f4f4f6" stroke="#f4f4f6" stroke-width="1.51"/><path d="M216 646l71 58 42-109z" fill="#979899" stroke="#979899" stroke-width="1.51"/><path d="M315 523l-94 10 108 62z" fill="#c5c5c6" stroke="#c5c5c6" stroke-width="1.51"/><path d="M221 533l-5 113 113-51z" fill="#b1b1b2" stroke="#b1b1b2" stroke-width="1.51"/><path d="M209 354l35 137 76-111z" fill="#f4f4f6" stroke="#f4f4f6" stroke-width="1.51"/><path d="M244 491l71 32 13-39z" fill="#ddddde" stroke="#ddddde" stroke-width="1.51"/><path d="M270 37l-35 30 47 63z" fill="#d6d9e4" stroke="#d6d9e4" stroke-width="1.51"/><path d="M297 308l-57 4 80 68z" fill="#f2f3f4" stroke="#f2f3f4" stroke-width="1.51"/><path d="M240 312l-31 42 111 26z" fill="#f2f2f4" stroke="#f2f2f4" stroke-width="1.51"/><path d="M282 130l-67 28 103 31z" fill="#ebecee" stroke="#ebecee" stroke-width="1.51"/><path d="M215 158l-19 44 122-13z" fill="#ebecef" stroke="#ebecef" stroke-width="1.51"/><path d="M236-3l34 40 29-74z" fill="#c1c5d9" stroke="#c1c5d9" stroke-width="1.51"/><path d="M244 491l-23 42 94-10z" fill="#d4d5d6" stroke="#d4d5d6" stroke-width="1.51"/><path d="M257-81L236-3l63-34z" fill="#b5bcd4" stroke="#b5bcd4" stroke-width="1.51"/><path d="M216 646l1 62 70-4z" fill="#868687" stroke="#868687" stroke-width="1.51"/><path d="M209 354l-70 91 105 46z" fill="#f0f1f4" stroke="#f0f1f4" stroke-width="1.51"/><path d="M235 67l-20 91 67-28z" fill="#e0e2e9" stroke="#e0e2e9" stroke-width="1.51"/><path d="M236-3l-1 70 35-30z" fill="#c9cddd" stroke="#c9cddd" stroke-width="1.51"/><path d="M196 202l-49 33 93 77z" fill="#e9eaee" stroke="#e9eaee" stroke-width="1.51"/><path d="M171-51l65 48 21-78z" fill="#b3bad2" stroke="#b3bad2" stroke-width="1.51"/><path d="M156-77l15 26 86-30z" fill="#a8b0cc" stroke="#a8b0cc" stroke-width="1.51"/><path d="M134 595l82 51 5-113z" fill="#abacaf" stroke="#abacaf" stroke-width="1.51"/><path d="M135 88l80 70 20-91z" fill="#d8dbe5" stroke="#d8dbe5" stroke-width="1.51"/><path d="M135 88l100-21 1-70z" fill="#cbcfde" stroke="#cbcfde" stroke-width="1.51"/><path d="M147 235l-29 41 122 36z" fill="#e4e5eb" stroke="#e4e5eb" stroke-width="1.51"/><path d="M139 445l82 88 23-42z" fill="#dddde0" stroke="#dddde0" stroke-width="1.51"/><path d="M171-51L135 88 236-3z" fill="#bbc1d6" stroke="#bbc1d6" stroke-width="1.51"/><path d="M118 276l91 78 31-42z" fill="#eaebef" stroke="#eaebef" stroke-width="1.51"/><path d="M134 553v42l87-62z" fill="#b3b4ba" stroke="#b3b4ba" stroke-width="1.51"/><path d="M-13-130l84 61 85-8z" fill="#8692bb" stroke="#8692bb" stroke-width="1.51"/><path d="M118 276l16 75 75 3z" fill="#e2e4ec" stroke="#e2e4ec" stroke-width="1.51"/><path d="M134 351l5 94 70-91z" fill="#e6e7ee" stroke="#e6e7ee" stroke-width="1.51"/><path d="M135 88l6 70h74z" fill="#d9dbe5" stroke="#d9dbe5" stroke-width="1.51"/><path d="M216 646l-94 47 95 15z" fill="#818286" stroke="#818286" stroke-width="1.51"/><path d="M139 445l-5 108 87-20z" fill="#cbccd2" stroke="#cbccd2" stroke-width="1.51"/><path d="M141 158l55 44 19-44z" fill="#e3e5ea" stroke="#e3e5ea" stroke-width="1.51"/><path d="M134 595l-12 98 94-47z" fill="#8b8d93" stroke="#8b8d93" stroke-width="1.51"/><path d="M45-33l90 121 36-139z" fill="#aab1cd" stroke="#aab1cd" stroke-width="1.51"/><path d="M141 158l6 77 49-33z" fill="#dfe1e9" stroke="#dfe1e9" stroke-width="1.51"/><path d="M45-33l-5 77 95 44z" fill="#a9b0cd" stroke="#a9b0cd" stroke-width="1.51"/><path d="M83 547l51 6 5-108z" fill="#bec0ca" stroke="#bec0ca" stroke-width="1.51"/><path d="M134 351l-50 56 55 38z" fill="#dde0ea" stroke="#dde0ea" stroke-width="1.51"/><path d="M156-77l-85 8 100 18z" fill="#9ba4c6" stroke="#9ba4c6" stroke-width="1.51"/><path d="M71-69L45-33l126-18z" fill="#97a1c3" stroke="#97a1c3" stroke-width="1.51"/><path d="M40 676l-51 34 133-17z" fill="#606473" stroke="#606473" stroke-width="1.51"/><path d="M37 476l46 71 56-102z" fill="#c3c6d3" stroke="#c3c6d3" stroke-width="1.51"/><path d="M141 158l-60 87 66-10z" fill="#d7d9e5" stroke="#d7d9e5" stroke-width="1.51"/><path d="M40 676l82 17 12-98z" fill="#7b7d89" stroke="#7b7d89" stroke-width="1.51"/><path d="M40 598v78l94-81z" fill="#838694" stroke="#838694" stroke-width="1.51"/><path d="M135 88l-83 19 89 51z" fill="#c7ccdc" stroke="#c7ccdc" stroke-width="1.51"/><path d="M81 245l37 31 29-41z" fill="#d6d9e5" stroke="#d6d9e5" stroke-width="1.51"/><path d="M118 276l-86 49 102 26z" fill="#d4d8e4" stroke="#d4d8e4" stroke-width="1.51"/><path d="M84 407l-47 69 102-31z" fill="#d7dae7" stroke="#d7dae7" stroke-width="1.51"/><path d="M52 107l29 138 60-87z" fill="#ced1df" stroke="#ced1df" stroke-width="1.51"/><path d="M134 553l-51-6 51 48z" fill="#a7a9b3" stroke="#a7a9b3" stroke-width="1.51"/><path d="M40 44l12 63 83-19z" fill="#b6bbd3" stroke="#b6bbd3" stroke-width="1.51"/><path d="M83 547l-43 51 94-3z" fill="#989ca8" stroke="#989ca8" stroke-width="1.51"/><path d="M32 325l52 82 50-56z" fill="#d3d6e5" stroke="#d3d6e5" stroke-width="1.51"/><path d="M81 245l-49 80 86-49z" fill="#cfd3e1" stroke="#cfd3e1" stroke-width="1.51"/><path d="M15 326l-47 56 64-57z" fill="#c0c6db" stroke="#c0c6db" stroke-width="1.51"/><path d="M-42 139L6 247l46-140z" fill="#bac0d6" stroke="#bac0d6" stroke-width="1.51"/><path d="M52 107L6 247l75-2z" fill="#c4c9db" stroke="#c4c9db" stroke-width="1.51"/><path d="M6 247l26 78 49-80z" fill="#c6cadd" stroke="#c6cadd" stroke-width="1.51"/><path d="M37 476l-61 92 107-21z" fill="#a4a8ba" stroke="#a4a8ba" stroke-width="1.51"/><path d="M32 325l-64 57 116 25z" fill="#c7cbde" stroke="#c7cbde" stroke-width="1.51"/><path d="M-32 382l48 74 68-49z" fill="#c7ccdf" stroke="#c7ccdf" stroke-width="1.51"/><path d="M16 456l21 20 47-69z" fill="#ced2e3" stroke="#ced2e3" stroke-width="1.51"/><path d="M-24 568l30 25 77-46z" fill="#9094a6" stroke="#9094a6" stroke-width="1.51"/><path d="M6 593l34 5 43-51z" fill="#9094a4" stroke="#9094a4" stroke-width="1.51"/><path d="M-13-130l58 97 26-36z" fill="#818fb9" stroke="#818fb9" stroke-width="1.51"/><path d="M6 247l9 79 17-1z" fill="#c2c7db" stroke="#c2c7db" stroke-width="1.51"/><path d="M6 593l34 83v-78z" fill="#7a7e90" stroke="#7a7e90" stroke-width="1.51"/><path d="M-42-13l82 57 5-77z" fill="#929cc1" stroke="#929cc1" stroke-width="1.51"/><path d="M-13-130L-42-13l87-20z" fill="#7e8bb7" stroke="#7e8bb7" stroke-width="1.51"/><path d="M40 44l-61 16 73 47z" fill="#a8afcc" stroke="#a8afcc" stroke-width="1.51"/><path d="M-21 60l-21 79 94-32z" fill="#aab1cd" stroke="#aab1cd" stroke-width="1.51"/><path d="M16 456l-87 63 108-43z" fill="#b0b6cb" stroke="#b0b6cb" stroke-width="1.51"/><path d="M-71 519l47 49 61-92z" fill="#9ca2b8" stroke="#9ca2b8" stroke-width="1.51"/><path d="M-42-13l21 73 61-16z" fill="#959fc3" stroke="#959fc3" stroke-width="1.51"/><path d="M6 593l-76 55 110 28z" fill="#6b7084" stroke="#6b7084" stroke-width="1.51"/><path d="M-70 648l59 62 51-34z" fill="#595f73" stroke="#595f73" stroke-width="1.51"/><path d="M-102 327l33 22L6 247z" fill="#b2b8d3" stroke="#b2b8d3" stroke-width="1.51"/><path d="M-42 139l-73 55L6 247z" fill="#aeb5d0" stroke="#aeb5d0" stroke-width="1.51"/><path d="M6 247l-75 102 84-23z" fill="#bac0d7" stroke="#bac0d7" stroke-width="1.51"/><path d="M-69 349l37 33 47-56z" fill="#b9bfd7" stroke="#b9bfd7" stroke-width="1.51"/><path d="M-32 382l-63 92 111-18z" fill="#bac0d9" stroke="#bac0d9" stroke-width="1.51"/><path d="M-95 474l24 45 87-63z" fill="#a7adc7" stroke="#a7adc7" stroke-width="1.51"/><path d="M-123-105l81 92 29-117z" fill="#6a7bae" stroke="#6a7bae" stroke-width="1.51"/><path d="M-115 194l13 133L6 247z" fill="#acb3cf" stroke="#acb3cf" stroke-width="1.51"/><path d="M-24 568l-46 80 76-55z" fill="#767c92" stroke="#767c92" stroke-width="1.51"/><path d="M-70 648l-5 78 64-16z" fill="#4b5167" stroke="#4b5167" stroke-width="1.51"/><path d="M-122 74l80 65 21-79z" fill="#99a3c5" stroke="#99a3c5" stroke-width="1.51"/><path d="M-102 148l-13 46 73-55z" fill="#a5accb" stroke="#a5accb" stroke-width="1.51"/><path d="M-42-13l-78 21 99 52z" fill="#8592bb" stroke="#8592bb" stroke-width="1.51"/><path d="M-120 8l-2 66 101-14z" fill="#8794bc" stroke="#8794bc" stroke-width="1.51"/><path d="M-71 519l1 129 46-80z" fill="#7b819a" stroke="#7b819a" stroke-width="1.51"/><path d="M-123-105l3 113 78-21z" fill="#6e7fb0" stroke="#6e7fb0" stroke-width="1.51"/><path d="M-122 74l20 74 60-9z" fill="#9ba4c6" stroke="#9ba4c6" stroke-width="1.51"/><path d="M-69 349l-26 125 63-92z" fill="#b2b9d4" stroke="#b2b9d4" stroke-width="1.51"/><path d="M-71 519l-24-45 25 174z" fill="#838ba5" stroke="#838ba5" stroke-width="1.51"/><path d="M-102 327l7 147 26-125z" fill="#acb3d1" stroke="#acb3d1" stroke-width="1.51"/><path d="M-95 474l20 252 5-78z" fill="#656d86" stroke="#656d86" stroke-width="1.51"/><path d="M-102 327l-13-133 20 280z" fill="#a6afce" stroke="#a6afce" stroke-width="1.51"/><path d="M-122 74l7 120 13-46z" fill="#9aa4c5" stroke="#9aa4c5" stroke-width="1.51"/><path d="M-123-105l1 179 2-66z" fill="#7080b0" stroke="#7080b0" stroke-width="1.51"/></svg>