<svg xmlns="http://www.w3.org/2000/svg" width="667" height="600"><path d="M2-99l37-5 128-23z" fill="#575757" stroke="#575757" stroke-width="1.51"/><path d="M-100-88L2-99l165-28z" fill="#4e4e4e" stroke="#4e4e4e" stroke-width="1.51"/><path d="M66 700l-120 4 293 14z" fill="#cb6a52" stroke="#cb6a52" stroke-width="1.51"/><path d="M360-97l70 1 100-19z" fill="#947f78" stroke="#947f78" stroke-width="1.51"/><path d="M294-107l66 10 170-18z" fill="#938782" stroke="#938782" stroke-width="1.51"/><path d="M225-127l69 20 236-8z" fill="#908c8b" stroke="#908c8b" stroke-width="1.51"/><path d="M460 708l-221 10 327-8z" fill="#ff9071" stroke="#ff9071" stroke-width="1.51"/><path d="M530-115l59 23 97 10z" fill="#986354" stroke="#986354" stroke-width="1.51"/><path d="M566 710l-327 8 501-5z" fill="#ff7c5a" stroke="#ff7c5a" stroke-width="1.51"/><path d="M624 702l-58 8 174 3z" fill="#ff5e3c" stroke="#ff5e3c" stroke-width="1.51"/><path d="M720 697l20 16 12-124z" fill="#ff5031" stroke="#ff5031" stroke-width="1.51"/><path d="M693 640l27 57 32-108z" fill="#ff5b3b" stroke="#ff5b3b" stroke-width="1.51"/><path d="M530-115l156 33 106-21z" fill="#985544" stroke="#985544" stroke-width="1.51"/><path d="M753 152l33 79L796 9z" fill="#dc7860" stroke="#dc7860" stroke-width="1.51"/><path d="M777 33l-24 119L796 9z" fill="#c96851" stroke="#c96851" stroke-width="1.51"/><path d="M792-103L686-82 796 9z" fill="#a64e39" stroke="#a64e39" stroke-width="1.51"/><path d="M686-82l91 115 19-24z" fill="#b35a45" stroke="#b35a45" stroke-width="1.51"/><path d="M786 231l-116 46 126 39z" fill="#ffa289" stroke="#ffa289" stroke-width="1.51"/><path d="M796 9l-10 222 10 85z" fill="#ec8369" stroke="#ec8369" stroke-width="1.51"/><path d="M796 316l-54 38 56 124z" fill="#ff9072" stroke="#ff9072" stroke-width="1.51"/><path d="M742 354l-28 72 84 52z" fill="#ff8e6f" stroke="#ff8e6f" stroke-width="1.51"/><path d="M796 9v307l7 235z" fill="#ff9d82" stroke="#ff9d82" stroke-width="1.51"/><path d="M798 478l-103 73h108z" fill="#ff714f" stroke="#ff714f" stroke-width="1.51"/><path d="M695 551l57 38 51-38z" fill="#ff6a49" stroke="#ff6a49" stroke-width="1.51"/><path d="M752 589l-12 124 63-162z" fill="#ff5837" stroke="#ff5837" stroke-width="1.51"/><path d="M796 316l2 162 5 73z" fill="#ff7d5c" stroke="#ff7d5c" stroke-width="1.51"/><path d="M686-82l-27 36 118 79z" fill="#ac5e4b" stroke="#ac5e4b" stroke-width="1.51"/><path d="M670 42l83 110 24-119z" fill="#cb735e" stroke="#cb735e" stroke-width="1.51"/><path d="M753 152l-35 20 68 59z" fill="#ea8a72" stroke="#ea8a72" stroke-width="1.51"/><path d="M670 277l72 77 54-38z" fill="#ffa88e" stroke="#ffa88e" stroke-width="1.51"/><path d="M714 426l-19 125 103-73z" fill="#ff8261" stroke="#ff8261" stroke-width="1.51"/><path d="M659-46l11 88 107-9z" fill="#b76955" stroke="#b76955" stroke-width="1.51"/><path d="M718 172l-33 33 101 26z" fill="#ef947c" stroke="#ef947c" stroke-width="1.51"/><path d="M685 205l-15 72 116-46z" fill="#f8a089" stroke="#f8a089" stroke-width="1.51"/><path d="M720 697l-96 5 116 11z" fill="#ff5031" stroke="#ff5031" stroke-width="1.51"/><path d="M670 42l48 130 35-20z" fill="#d7836d" stroke="#d7836d" stroke-width="1.51"/><path d="M666 396l48 30 28-72z" fill="#ff9d81" stroke="#ff9d81" stroke-width="1.51"/><path d="M695 551l-2 89 59-51z" fill="#ff6b4a" stroke="#ff6b4a" stroke-width="1.51"/><path d="M623 450l72 101 19-125z" fill="#ff9072" stroke="#ff9072" stroke-width="1.51"/><path d="M670 277l-34 30 106 47z" fill="#ffb39d" stroke="#ffb39d" stroke-width="1.51"/><path d="M636 307l30 89 76-42z" fill="#ffab92" stroke="#ffab92" stroke-width="1.51"/><path d="M670 42l-78 99 126 31z" fill="#d48c79" stroke="#d48c79" stroke-width="1.51"/><path d="M636 307l-5 61 35 28z" fill="#ffb29a" stroke="#ffb29a" stroke-width="1.51"/><path d="M623 450l-7 79 79 22z" fill="#ff8f71" stroke="#ff8f71" stroke-width="1.51"/><path d="M592 141l93 64 33-33z" fill="#e39985" stroke="#e39985" stroke-width="1.51"/><path d="M693 640l-69 62 96-5z" fill="#ff5c3b" stroke="#ff5c3b" stroke-width="1.51"/><path d="M630 629l63 11 2-89z" fill="#ff7150" stroke="#ff7150" stroke-width="1.51"/><path d="M666 396l-43 54 91-24z" fill="#ff9e82" stroke="#ff9e82" stroke-width="1.51"/><path d="M583 59l9 82 78-99z" fill="#c78b7a" stroke="#c78b7a" stroke-width="1.51"/><path d="M592 141l33 85 60-21z" fill="#e6a391" stroke="#e6a391" stroke-width="1.51"/><path d="M625 226l45 51 15-72z" fill="#f4aa96" stroke="#f4aa96" stroke-width="1.51"/><path d="M630 629l-6 73 69-62z" fill="#ff6a49" stroke="#ff6a49" stroke-width="1.51"/><path d="M616 529l14 100 65-78z" fill="#ff8160" stroke="#ff8160" stroke-width="1.51"/><path d="M659-46l-35-1 46 89z" fill="#ae6d5b" stroke="#ae6d5b" stroke-width="1.51"/><path d="M624-47l35 1 27-36z" fill="#a36250" stroke="#a36250" stroke-width="1.51"/><path d="M589-92l35 45 62-35z" fill="#9f6352" stroke="#9f6352" stroke-width="1.51"/><path d="M625 226l11 81 34-30z" fill="#feb6a3" stroke="#feb6a3" stroke-width="1.51"/><path d="M624-47L583 59l87-17z" fill="#b77a69" stroke="#b77a69" stroke-width="1.51"/><path d="M631 368l-8 82 43-54z" fill="#ffa88e" stroke="#ffa88e" stroke-width="1.51"/><path d="M539 467l77 62 7-79z" fill="#ffa185" stroke="#ffa185" stroke-width="1.51"/><path d="M539-40l44 99 41-106z" fill="#ae7b6d" stroke="#ae7b6d" stroke-width="1.51"/><path d="M616 529l-72 82 86 18z" fill="#ff8767" stroke="#ff8767" stroke-width="1.51"/><path d="M566 710l58-8 6-73z" fill="#ff6e4d" stroke="#ff6e4d" stroke-width="1.51"/><path d="M544 611l22 99 64-81z" fill="#ff7c5b" stroke="#ff7c5b" stroke-width="1.51"/><path d="M535 358l88 92 8-82z" fill="#ffb39d" stroke="#ffb39d" stroke-width="1.51"/><path d="M564 304l67 64 5-61z" fill="#ffbfab" stroke="#ffbfab" stroke-width="1.51"/><path d="M625 226l-61 78 72 3z" fill="#febfad" stroke="#febfad" stroke-width="1.51"/><path d="M535 358l4 109 84-17z" fill="#ffb39b" stroke="#ffb39b" stroke-width="1.51"/><path d="M592 141l-73 54 106 31z" fill="#e3ae9e" stroke="#e3ae9e" stroke-width="1.51"/><path d="M564 304l-29 54 96 10z" fill="#ffc2b0" stroke="#ffc2b0" stroke-width="1.51"/><path d="M519 195l45 109 61-78z" fill="#f2beae" stroke="#f2beae" stroke-width="1.51"/><path d="M589-92l-50 52 85-7z" fill="#a16f61" stroke="#a16f61" stroke-width="1.51"/><path d="M583 59l-37 12 46 70z" fill="#c99687" stroke="#c99687" stroke-width="1.51"/><path d="M546 71l-2 61 48 9z" fill="#cf9e90" stroke="#cf9e90" stroke-width="1.51"/><path d="M508 541l36 70 72-82z" fill="#ff9679" stroke="#ff9679" stroke-width="1.51"/><path d="M539 467l-31 74 108-12z" fill="#ffa286" stroke="#ffa286" stroke-width="1.51"/><path d="M539-40l7 111 37-12z" fill="#b88a7d" stroke="#b88a7d" stroke-width="1.51"/><path d="M544 132l-25 63 73-54z" fill="#daab9d" stroke="#daab9d" stroke-width="1.51"/><path d="M530-115l9 75 50-52z" fill="#9b7063" stroke="#9b7063" stroke-width="1.51"/><path d="M348 684l-109 34 221-10z" fill="#ffa186" stroke="#ffa186" stroke-width="1.51"/><path d="M519 195l-48 101 93 8z" fill="#f7cec1" stroke="#f7cec1" stroke-width="1.51"/><path d="M539-40l-85 14 92 97z" fill="#af8b80" stroke="#af8b80" stroke-width="1.51"/><path d="M544 611l-84 97 106 2z" fill="#ff8362" stroke="#ff8362" stroke-width="1.51"/><path d="M471 296l64 62 29-54z" fill="#ffd2c4" stroke="#ffd2c4" stroke-width="1.51"/><path d="M449 229l22 67 48-101z" fill="#efcfc5" stroke="#efcfc5" stroke-width="1.51"/><path d="M429 378l41 101 65-121z" fill="#ffc9b7" stroke="#ffc9b7" stroke-width="1.51"/><path d="M530-115l-76 89 85-14z" fill="#9f7d73" stroke="#9f7d73" stroke-width="1.51"/><path d="M535 358l-65 121 69-12z" fill="#ffbba5" stroke="#ffbba5" stroke-width="1.51"/><path d="M470 479l38 62 31-74z" fill="#ffb097" stroke="#ffb097" stroke-width="1.51"/><path d="M449 119l70 76 25-63z" fill="#d6b2a7" stroke="#d6b2a7" stroke-width="1.51"/><path d="M458 88l-9 31 95 13z" fill="#ccada3" stroke="#ccada3" stroke-width="1.51"/><path d="M508 541l-32 54 68 16z" fill="#ff9b7f" stroke="#ff9b7f" stroke-width="1.51"/><path d="M476 595l-16 113 84-97z" fill="#ff9274" stroke="#ff9274" stroke-width="1.51"/><path d="M454-26l4 114 88-17z" fill="#bb9b92" stroke="#bb9b92" stroke-width="1.51"/><path d="M458 88l86 44 2-61z" fill="#c9a397" stroke="#c9a397" stroke-width="1.51"/><path d="M430-96l24 70 76-89z" fill="#9a7f76" stroke="#9a7f76" stroke-width="1.51"/><path d="M471 296l-42 82 106-20z" fill="#ffd6c9" stroke="#ffd6c9" stroke-width="1.51"/><path d="M466 560l10 35 32-54z" fill="#ffa58a" stroke="#ffa58a" stroke-width="1.51"/><path d="M449 119v110l70-34z" fill="#dfc1b8" stroke="#dfc1b8" stroke-width="1.51"/><path d="M454-26l-47 39 51 75z" fill="#b49f98" stroke="#b49f98" stroke-width="1.51"/><path d="M470 479l-4 81 42-19z" fill="#ffad95" stroke="#ffad95" stroke-width="1.51"/><path d="M141 698l-75 2 173 18z" fill="#dc7860" stroke="#dc7860" stroke-width="1.51"/><path d="M405 213l44 16V119z" fill="#dfcac3" stroke="#dfcac3" stroke-width="1.51"/><path d="M361 590l-13 94 112 24z" fill="#ffa287" stroke="#ffa287" stroke-width="1.51"/><path d="M372 477l-14 58 108 25z" fill="#ffbeaa" stroke="#ffbeaa" stroke-width="1.51"/><path d="M372 477l94 83 4-81z" fill="#ffbca6" stroke="#ffbca6" stroke-width="1.51"/><path d="M429 378l-57 99 98 2z" fill="#ffcbba" stroke="#ffcbba" stroke-width="1.51"/><path d="M449 229l-66 57 88 10z" fill="#f6e0d9" stroke="#f6e0d9" stroke-width="1.51"/><path d="M383 286l46 92 42-82z" fill="#ffe5dd" stroke="#ffe5dd" stroke-width="1.51"/><path d="M466 560l-105 30 115 5z" fill="#ffaa91" stroke="#ffaa91" stroke-width="1.51"/><path d="M361 590l99 118 16-113z" fill="#ffa084" stroke="#ffa084" stroke-width="1.51"/><path d="M389 119l16 94 44-94z" fill="#d5c4be" stroke="#d5c4be" stroke-width="1.51"/><path d="M358 535l3 55 105-30z" fill="#ffb7a1" stroke="#ffb7a1" stroke-width="1.51"/><path d="M407 13l-44 40 95 35z" fill="#bbaba6" stroke="#bbaba6" stroke-width="1.51"/><path d="M363 53l26 66 69-31z" fill="#c4b6b1" stroke="#c4b6b1" stroke-width="1.51"/><path d="M405 213l-22 73 66-57z" fill="#eeddd8" stroke="#eeddd8" stroke-width="1.51"/><path d="M389 119h60l9-31z" fill="#cab6af" stroke="#cab6af" stroke-width="1.51"/><path d="M350 401l22 76 57-99z" fill="#ffd8cc" stroke="#ffd8cc" stroke-width="1.51"/><path d="M360-97l47 110 23-109z" fill="#9f918d" stroke="#9f918d" stroke-width="1.51"/><path d="M430-96L407 13l47-39z" fill="#a5918b" stroke="#a5918b" stroke-width="1.51"/><path d="M383 286l-33 115 79-23z" fill="#ffe5dd" stroke="#ffe5dd" stroke-width="1.51"/><path d="M308 284l42 117 33-115z" fill="#fff4f1" stroke="#fff4f1" stroke-width="1.51"/><path d="M308 284l75 2 22-73z" fill="#f3ebe9" stroke="#f3ebe9" stroke-width="1.51"/><path d="M389 119l-109 6 125 88z" fill="#d5cfce" stroke="#d5cfce" stroke-width="1.51"/><path d="M280 125l-9 91 134-3z" fill="#d9d9d9" stroke="#d9d9d9" stroke-width="1.51"/><path d="M312 26l51 27 44-40z" fill="#b5afad" stroke="#b5afad" stroke-width="1.51"/><path d="M360-97L312 26l95-13z" fill="#a9a3a1" stroke="#a9a3a1" stroke-width="1.51"/><path d="M271 216l37 68 97-71z" fill="#e9e9e9" stroke="#e9e9e9" stroke-width="1.51"/><path d="M308 284l-18 105 60 12z" fill="#f9ebe6" stroke="#f9ebe6" stroke-width="1.51"/><path d="M260-14l52 40 48-123z" fill="#a0a0a0" stroke="#a0a0a0" stroke-width="1.51"/><path d="M363 53l-83 72 109-6z" fill="#c7c4c3" stroke="#c7c4c3" stroke-width="1.51"/><path d="M278 679l-39 39 109-34z" fill="#ff9b82" stroke="#ff9b82" stroke-width="1.51"/><path d="M294-107l-34 93 100-83z" fill="#939393" stroke="#939393" stroke-width="1.51"/><path d="M262 644l86 40 13-94z" fill="#ffaf99" stroke="#ffaf99" stroke-width="1.51"/><path d="M350 401l-79 38 101 38z" fill="#ffddd3" stroke="#ffddd3" stroke-width="1.51"/><path d="M302 534l56 1 14-58z" fill="#ffcbbb" stroke="#ffcbbb" stroke-width="1.51"/><path d="M271 439l31 95 70-57z" fill="#fdd0c3" stroke="#fdd0c3" stroke-width="1.51"/><path d="M262 644l16 35 70 5z" fill="#ffa28a" stroke="#ffa28a" stroke-width="1.51"/><path d="M358 535l-56-1 59 56z" fill="#ffc4b1" stroke="#ffc4b1" stroke-width="1.51"/><path d="M312 26l-32 99 83-72z" fill="#bababa" stroke="#bababa" stroke-width="1.51"/><path d="M302 534l-40 110 99-54z" fill="#ffb7a3" stroke="#ffb7a3" stroke-width="1.51"/><path d="M290 389l-19 50 79-38z" fill="#f7ddd5" stroke="#f7ddd5" stroke-width="1.51"/><path d="M212 27l10 88 58 10z" fill="#acacac" stroke="#acacac" stroke-width="1.51"/><path d="M198 308l20 77 72 4z" fill="#e5d6d2" stroke="#e5d6d2" stroke-width="1.51"/><path d="M208 559l54 85 40-110z" fill="#f2ad9a" stroke="#f2ad9a" stroke-width="1.51"/><path d="M198 308l92 81 18-105z" fill="#ece5e3" stroke="#ece5e3" stroke-width="1.51"/><path d="M212 27l68 98 32-99z" fill="#acacac" stroke="#acacac" stroke-width="1.51"/><path d="M260-14l-48 41 100-1z" fill="#9f9f9f" stroke="#9f9f9f" stroke-width="1.51"/><path d="M271 439l-63 120 94-25z" fill="#f0bdae" stroke="#f0bdae" stroke-width="1.51"/><path d="M271 216l-68 24 105 44z" fill="#dbdbdb" stroke="#dbdbdb" stroke-width="1.51"/><path d="M203 240l-5 68 110-24z" fill="#dedede" stroke="#dedede" stroke-width="1.51"/><path d="M208 559l36 85h18z" fill="#efa18c" stroke="#efa18c" stroke-width="1.51"/><path d="M225-127l35 113 34-93z" fill="#868686" stroke="#868686" stroke-width="1.51"/><path d="M208 429v130l63-120z" fill="#e6bdb0" stroke="#e6bdb0" stroke-width="1.51"/><path d="M222 115l49 101 9-91z" fill="#c1c1c1" stroke="#c1c1c1" stroke-width="1.51"/><path d="M218 385l53 54 19-50z" fill="#ecd3cb" stroke="#ecd3cb" stroke-width="1.51"/><path d="M225-127L191-18l69 4z" fill="#868686" stroke="#868686" stroke-width="1.51"/><path d="M218 385l-10 44 63 10z" fill="#e6cac1" stroke="#e6cac1" stroke-width="1.51"/><path d="M222 115l-19 125 68-24z" fill="#c5c5c5" stroke="#c5c5c5" stroke-width="1.51"/><path d="M262 644h-18l34 35z" fill="#f79d86" stroke="#f79d86" stroke-width="1.51"/><path d="M244 644l-5 74 39-39z" fill="#f6967d" stroke="#f6967d" stroke-width="1.51"/><path d="M150 523l58 36V429z" fill="#ddad9f" stroke="#ddad9f" stroke-width="1.51"/><path d="M191-18l21 45 48-41z" fill="#919191" stroke="#919191" stroke-width="1.51"/><path d="M120 221l83 19 19-125z" fill="#bababa" stroke="#bababa" stroke-width="1.51"/><path d="M212 27l-59 59 69 29z" fill="#9f9f9f" stroke="#9f9f9f" stroke-width="1.51"/><path d="M167-127l24 109 34-109z" fill="#767676" stroke="#767676" stroke-width="1.51"/><path d="M208 559l-54 64 90 21z" fill="#e59985" stroke="#e59985" stroke-width="1.51"/><path d="M141 698l98 20 5-74z" fill="#eb8a72" stroke="#eb8a72" stroke-width="1.51"/><path d="M154 623l-13 75 103-54z" fill="#e28a74" stroke="#e28a74" stroke-width="1.51"/><path d="M139 449l11 74 58-94z" fill="#d6afa4" stroke="#d6afa4" stroke-width="1.51"/><path d="M198 308l-36 52 56 25z" fill="#dbceca" stroke="#dbceca" stroke-width="1.51"/><path d="M103 138l17 83 102-106z" fill="#a9a9a9" stroke="#a9a9a9" stroke-width="1.51"/><path d="M153 86l-50 52 119-23z" fill="#a0a0a0" stroke="#a0a0a0" stroke-width="1.51"/><path d="M162 360l46 69 10-44z" fill="#dcc7c0" stroke="#dcc7c0" stroke-width="1.51"/><path d="M162 360l-23 89 69-20z" fill="#d6bcb4" stroke="#d6bcb4" stroke-width="1.51"/><path d="M191-18L106 0l106 27z" fill="#878787" stroke="#878787" stroke-width="1.51"/><path d="M106 0l47 86 59-59z" fill="#8d8d8d" stroke="#8d8d8d" stroke-width="1.51"/><path d="M120 221l19 109 59-22z" fill="#cbcbcb" stroke="#cbcbcb" stroke-width="1.51"/><path d="M120 221l78 87 5-68z" fill="#c9c9c9" stroke="#c9c9c9" stroke-width="1.51"/><path d="M150 523l4 100 54-64z" fill="#db9a89" stroke="#db9a89" stroke-width="1.51"/><path d="M167-127L106 0l85-18z" fill="#787878" stroke="#787878" stroke-width="1.51"/><path d="M139 330l23 30 36-52z" fill="#d4cbc9" stroke="#d4cbc9" stroke-width="1.51"/><path d="M23 542v60l127-79z" fill="#c08575" stroke="#c08575" stroke-width="1.51"/><path d="M150 523L23 602l131 21z" fill="#cc8977" stroke="#cc8977" stroke-width="1.51"/><path d="M35 367l104 82 23-89z" fill="#c7b2ac" stroke="#c7b2ac" stroke-width="1.51"/><path d="M39-104L106 0l61-127z" fill="#666" stroke="#666" stroke-width="1.51"/><path d="M139 449l-63 21 74 53z" fill="#cca296" stroke="#cca296" stroke-width="1.51"/><path d="M139 330L35 367l127-7z" fill="#c7bbb6" stroke="#c7bbb6" stroke-width="1.51"/><path d="M103 138l-25 62 42 21z" fill="#a5a5a5" stroke="#a5a5a5" stroke-width="1.51"/><path d="M35 367l41 103 63-21z" fill="#c1a49b" stroke="#c1a49b" stroke-width="1.51"/><path d="M120 221l-90 76 109 33z" fill="#bdbdbd" stroke="#bdbdbd" stroke-width="1.51"/><path d="M106 0L35 85l118 1z" fill="#848484" stroke="#848484" stroke-width="1.51"/><path d="M66 700l75-2 13-75z" fill="#d37962" stroke="#d37962" stroke-width="1.51"/><path d="M23 602l43 98 88-77z" fill="#c77762" stroke="#c77762" stroke-width="1.51"/><path d="M35 85l68 53 50-52z" fill="#8f8f8f" stroke="#8f8f8f" stroke-width="1.51"/><path d="M76 470l-53 72 127-19z" fill="#c39384" stroke="#c39384" stroke-width="1.51"/><path d="M30 297l5 70 104-37z" fill="#bdb5b2" stroke="#bdb5b2" stroke-width="1.51"/><path d="M39-104L45 0h61z" fill="#676767" stroke="#676767" stroke-width="1.51"/><path d="M45 0L35 85l71-85z" fill="#757575" stroke="#757575" stroke-width="1.51"/><path d="M78 200l-48 97 90-76z" fill="#adadad" stroke="#adadad" stroke-width="1.51"/><path d="M28 140l50 60 25-62z" fill="#979797" stroke="#979797" stroke-width="1.51"/><path d="M35 85l-7 55 75-2z" fill="#8a8a8a" stroke="#8a8a8a" stroke-width="1.51"/><path d="M2-99L-1-9l40-95z" fill="#545454" stroke="#545454" stroke-width="1.51"/><path d="M39-104L-1-9l46 9z" fill="#5e5e5e" stroke="#5e5e5e" stroke-width="1.51"/><path d="M-3 381l-51 95 130-6z" fill="#af9086" stroke="#af9086" stroke-width="1.51"/><path d="M35 367l-38 14 79 89z" fill="#b59d96" stroke="#b59d96" stroke-width="1.51"/><path d="M-7 194l37 103 48-97z" fill="#a0a0a0" stroke="#a0a0a0" stroke-width="1.51"/><path d="M28 140l-35 54 85 6z" fill="#949494" stroke="#949494" stroke-width="1.51"/><path d="M-54 476l77 66 53-72z" fill="#b28679" stroke="#b28679" stroke-width="1.51"/><path d="M23 602l-21-2 64 100z" fill="#ba6d59" stroke="#ba6d59" stroke-width="1.51"/><path d="M2 600l-56 104 120-4z" fill="#b5604b" stroke="#b5604b" stroke-width="1.51"/><path d="M-13 567l36 35v-60z" fill="#b37666" stroke="#b37666" stroke-width="1.51"/><path d="M-7 194l-54 79 91 24z" fill="#9c9c9c" stroke="#9c9c9c" stroke-width="1.51"/><path d="M-1-9l-56 99 92-5z" fill="#6d6d6d" stroke="#6d6d6d" stroke-width="1.51"/><path d="M30 297l-33 84 38-14z" fill="#b1a6a2" stroke="#b1a6a2" stroke-width="1.51"/><path d="M-1-9l36 94L45 0z" fill="#6d6d6d" stroke="#6d6d6d" stroke-width="1.51"/><path d="M-13 567l15 33 21 2z" fill="#b2715f" stroke="#b2715f" stroke-width="1.51"/><path d="M-54 128l82 12 7-55z" fill="#7e7e7e" stroke="#7e7e7e" stroke-width="1.51"/><path d="M-57 90l3 38 89-43z" fill="#737373" stroke="#737373" stroke-width="1.51"/><path d="M-61 273l58 108 33-84z" fill="#a9a5a3" stroke="#a9a5a3" stroke-width="1.51"/><path d="M-54 476l41 91 36-25z" fill="#ac796b" stroke="#ac796b" stroke-width="1.51"/><path d="M-54 128l47 66 35-54z" fill="#838383" stroke="#838383" stroke-width="1.51"/><path d="M-61 273l-59 26 117 82z" fill="#9e9998" stroke="#9e9998" stroke-width="1.51"/><path d="M-120 299l-20 57 137 25z" fill="#988e8a" stroke="#988e8a" stroke-width="1.51"/><path d="M-104-46l47 136L-1-9z" fill="#595959" stroke="#595959" stroke-width="1.51"/><path d="M-104-46L-1-9l3-90z" fill="#4e4e4e" stroke="#4e4e4e" stroke-width="1.51"/><path d="M-100-88l-4 42L2-99z" fill="#424242" stroke="#424242" stroke-width="1.51"/><path d="M-95 667l41 37L2 600z" fill="#a75743" stroke="#a75743" stroke-width="1.51"/><path d="M-13 567l-84 35 99-2z" fill="#a86856" stroke="#a86856" stroke-width="1.51"/><path d="M-97 602l2 65 97-67z" fill="#a35b49" stroke="#a35b49" stroke-width="1.51"/><path d="M-54 476l-52 65 93 26z" fill="#a17061" stroke="#a17061" stroke-width="1.51"/><path d="M-115 460l61 16 51-95z" fill="#a08278" stroke="#a08278" stroke-width="1.51"/><path d="M-140 356l25 104 112-79z" fill="#99837d" stroke="#99837d" stroke-width="1.51"/><path d="M-54 128l-80 103 127-37z" fill="#7f7f7f" stroke="#7f7f7f" stroke-width="1.51"/><path d="M-134 231l73 42 54-79z" fill="#8a8a8a" stroke="#8a8a8a" stroke-width="1.51"/><path d="M-104-46l-26 124 73 12z" fill="#575757" stroke="#575757" stroke-width="1.51"/><path d="M-106 541l9 61 84-35z" fill="#9f6454" stroke="#9f6454" stroke-width="1.51"/><path d="M-130 78l-2 64 75-52z" fill="#626262" stroke="#626262" stroke-width="1.51"/><path d="M-132 142l-2 89 80-103z" fill="#727272" stroke="#727272" stroke-width="1.51"/><path d="M-57 90l-75 52 78-14z" fill="#6c6c6c" stroke="#6c6c6c" stroke-width="1.51"/><path d="M-115 460l9 81 52-65z" fill="#997064" stroke="#997064" stroke-width="1.51"/><path d="M-134 231l14 68 59-26z" fill="#8a8a8a" stroke="#8a8a8a" stroke-width="1.51"/><path d="M-97 602l-9-61 11 126z" fill="#995746" stroke="#995746" stroke-width="1.51"/><path d="M-106 541l-34-185 45 311z" fill="#946557" stroke="#946557" stroke-width="1.51"/><path d="M-130 78l26-124 4-42z" fill="#464646" stroke="#464646" stroke-width="1.51"/><path d="M-115 460l-25-104 34 185z" fill="#917168" stroke="#917168" stroke-width="1.51"/><path d="M-134 231l-6 125 20-57z" fill="#8b8b8b" stroke="#8b8b8b" stroke-width="1.51"/><path d="M-140 356l6-125 2-89z" fill="#7d7d7d" stroke="#7d7d7d" stroke-width="1.51"/></svg>