<svg xmlns="http://www.w3.org/2000/svg" width="313" height="800"><path d="M4-132l45 21 94 17z" fill="#4a6527" stroke="#4a6527" stroke-width="1.51"/><path d="M251 914l-230 9 275 4z" fill="#2f413c" stroke="#2f413c" stroke-width="1.51"/><path d="M143-94l90 2 147-52z" fill="#3c6555" stroke="#3c6555" stroke-width="1.51"/><path d="M4-132l139 38 237-50z" fill="#303a2d" stroke="#303a2d" stroke-width="1.51"/><path d="M340 27l23 87L382 5z" fill="#548750" stroke="#548750" stroke-width="1.51"/><path d="M369 729l-60 26 77 112z" fill="#337f7c" stroke="#337f7c" stroke-width="1.51"/><path d="M312 617l51 51 60-81z" fill="#318784" stroke="#318784" stroke-width="1.51"/><path d="M408 503l-115 20 130 64z" fill="#346a66" stroke="#346a66" stroke-width="1.51"/><path d="M293 523l19 94 111-30z" fill="#328683" stroke="#328683" stroke-width="1.51"/><path d="M363 668l6 61 54-142z" fill="#318684" stroke="#318684" stroke-width="1.51"/><path d="M369 729l17 138 37-280z" fill="#337a77" stroke="#337a77" stroke-width="1.51"/><path d="M312-63l70 68 42-58z" fill="#446847" stroke="#446847" stroke-width="1.51"/><path d="M335-106l-23 43 112 10z" fill="#40674e" stroke="#40674e" stroke-width="1.51"/><path d="M380-144l-45 38 89 53z" fill="#395341" stroke="#395341" stroke-width="1.51"/><path d="M363 114l20 83 41-250z" fill="#558341" stroke="#558341" stroke-width="1.51"/><path d="M382 5l-19 109 61-167z" fill="#4c7040" stroke="#4c7040" stroke-width="1.51"/><path d="M372 312l-34 111 86-44z" fill="#354c40" stroke="#354c40" stroke-width="1.51"/><path d="M338 423l29 43 57-87z" fill="#314b46" stroke="#314b46" stroke-width="1.51"/><path d="M383 197l-11 115 52 67z" fill="#3f593c" stroke="#3f593c" stroke-width="1.51"/><path d="M367 466l41 37 16-124z" fill="#304640" stroke="#304640" stroke-width="1.51"/><path d="M408 503l15 84 1-208z" fill="#304641" stroke="#304641" stroke-width="1.51"/><path d="M424-53l-41 250 41 182z" fill="#4e7136" stroke="#4e7136" stroke-width="1.51"/><path d="M299 342l39 81 34-111z" fill="#3b6557" stroke="#3b6557" stroke-width="1.51"/><path d="M233-92l102-14 45-38z" fill="#3d7163" stroke="#3d7163" stroke-width="1.51"/><path d="M316 289l56 23 11-115z" fill="#487450" stroke="#487450" stroke-width="1.51"/><path d="M309 755l-22 99 99 13z" fill="#328380" stroke="#328380" stroke-width="1.51"/><path d="M367 466l-74 57 115-20z" fill="#346965" stroke="#346965" stroke-width="1.51"/><path d="M363 668l-32 43 38 18z" fill="#2d9795" stroke="#2d9795" stroke-width="1.51"/><path d="M312-63l28 90 42-22z" fill="#4c8057" stroke="#4c8057" stroke-width="1.51"/><path d="M363 114l-47 7 67 76z" fill="#5c9a56" stroke="#5c9a56" stroke-width="1.51"/><path d="M316 121l-16 83 83-7z" fill="#5a9d61" stroke="#5a9d61" stroke-width="1.51"/><path d="M300 204l16 85 67-92z" fill="#518c5f" stroke="#518c5f" stroke-width="1.51"/><path d="M287 854l81 67 18-54z" fill="#346965" stroke="#346965" stroke-width="1.51"/><path d="M340 27l-24 94 47-7z" fill="#5d9f5e" stroke="#5d9f5e" stroke-width="1.51"/><path d="M287 854l9 73 72-6z" fill="#347470" stroke="#347470" stroke-width="1.51"/><path d="M316 289l-17 53 73-30z" fill="#43765d" stroke="#43765d" stroke-width="1.51"/><path d="M331 711l-22 44 60-26z" fill="#2c9996" stroke="#2c9996" stroke-width="1.51"/><path d="M338 423l-45 100 74-57z" fill="#346f6b" stroke="#346f6b" stroke-width="1.51"/><path d="M312 617l19 94 32-43z" fill="#26a4a2" stroke="#26a4a2" stroke-width="1.51"/><path d="M182 888L21 923l230-9z" fill="#2d372f" stroke="#2d372f" stroke-width="1.51"/><path d="M293 523l-26 7 45 87z" fill="#2c9796" stroke="#2c9796" stroke-width="1.51"/><path d="M312 617l-90 63 109 31z" fill="#15b7b6" stroke="#15b7b6" stroke-width="1.51"/><path d="M299 342l-44 71 83 10z" fill="#35716b" stroke="#35716b" stroke-width="1.51"/><path d="M255 413l38 110 45-100z" fill="#337d7a" stroke="#337d7a" stroke-width="1.51"/><path d="M312-63L256-8l84 35z" fill="#4f966f" stroke="#4f966f" stroke-width="1.51"/><path d="M269 115l47 6 24-94z" fill="#60b270" stroke="#60b270" stroke-width="1.51"/><path d="M256-8l13 123 71-88z" fill="#59a671" stroke="#59a671" stroke-width="1.51"/><path d="M233-92l79 29 23-43z" fill="#43826e" stroke="#43826e" stroke-width="1.51"/><path d="M287 854l-20 12 29 61z" fill="#337d7a" stroke="#337d7a" stroke-width="1.51"/><path d="M269 115l31 89 16-83z" fill="#62ba76" stroke="#62ba76" stroke-width="1.51"/><path d="M238 746l71 9 22-44z" fill="#21abab" stroke="#21abab" stroke-width="1.51"/><path d="M222 680l16 66 93-35z" fill="#27a2a1" stroke="#27a2a1" stroke-width="1.51"/><path d="M256-8l-52 43 65 80z" fill="#558e57" stroke="#558e57" stroke-width="1.51"/><path d="M255 413l12 117 26-7z" fill="#337a76" stroke="#337a76" stroke-width="1.51"/><path d="M238 746l49 108 22-99z" fill="#2d9593" stroke="#2d9593" stroke-width="1.51"/><path d="M267 530l-51 83 96 4z" fill="#2e918f" stroke="#2e918f" stroke-width="1.51"/><path d="M216 613l6 67 90-63z" fill="#2d9795" stroke="#2d9795" stroke-width="1.51"/><path d="M300 204l-68 83 84 2z" fill="#4e906a" stroke="#4e906a" stroke-width="1.51"/><path d="M232 287l67 55 17-53z" fill="#468268" stroke="#468268" stroke-width="1.51"/><path d="M267 866l-16 48 45 13z" fill="#34716e" stroke="#34716e" stroke-width="1.51"/><path d="M269 115l-63 76 94 13z" fill="#5b9d60" stroke="#5b9d60" stroke-width="1.51"/><path d="M233-92l23 84 56-55z" fill="#477d60" stroke="#477d60" stroke-width="1.51"/><path d="M255 413l-71 37 83 80z" fill="#335f5b" stroke="#335f5b" stroke-width="1.51"/><path d="M238 746l29 120 20-12z" fill="#328380" stroke="#328380" stroke-width="1.51"/><path d="M223 345l32 68 44-71z" fill="#396458" stroke="#396458" stroke-width="1.51"/><path d="M232 287l-9 58 76-3z" fill="#406c56" stroke="#406c56" stroke-width="1.51"/><path d="M206 191l26 96 68-83z" fill="#508557" stroke="#508557" stroke-width="1.51"/><path d="M53 898l-32 25 161-35z" fill="#425b35" stroke="#425b35" stroke-width="1.51"/><path d="M206 191l-21 67 47 29z" fill="#486b41" stroke="#486b41" stroke-width="1.51"/><path d="M129 807l53 81 56-142z" fill="#335955" stroke="#335955" stroke-width="1.51"/><path d="M181 533l35 80 51-83z" fill="#34716d" stroke="#34716d" stroke-width="1.51"/><path d="M184 450l-3 83 86-3z" fill="#335d58" stroke="#335d58" stroke-width="1.51"/><path d="M238 746l-56 142 85-22z" fill="#346d69" stroke="#346d69" stroke-width="1.51"/><path d="M132 140l74 51 63-76z" fill="#568441" stroke="#568441" stroke-width="1.51"/><path d="M204 35l-72 105 137-25z" fill="#578541" stroke="#578541" stroke-width="1.51"/><path d="M233-92l-61 80 84 4z" fill="#446847" stroke="#446847" stroke-width="1.51"/><path d="M182 888l69 26 16-48z" fill="#34605c" stroke="#34605c" stroke-width="1.51"/><path d="M158 739l-29 68 109-61z" fill="#34635e" stroke="#34635e" stroke-width="1.51"/><path d="M223 345l-39 105 71-37z" fill="#304843" stroke="#304843" stroke-width="1.51"/><path d="M172-12l32 47 52-43z" fill="#4a7044" stroke="#4a7044" stroke-width="1.51"/><path d="M132 140l17 35 57 16z" fill="#4c682b" stroke="#4c682b" stroke-width="1.51"/><path d="M181 533l-19 68 54 12z" fill="#346561" stroke="#346561" stroke-width="1.51"/><path d="M155 341l29 109 39-105z" fill="#303c32" stroke="#303c32" stroke-width="1.51"/><path d="M155 341l68 4 9-58z" fill="#3b523d" stroke="#3b523d" stroke-width="1.51"/><path d="M143-94l29 82 61-80z" fill="#3b4d32" stroke="#3b4d32" stroke-width="1.51"/><path d="M222 680l-64 59 80 7z" fill="#337e7b" stroke="#337e7b" stroke-width="1.51"/><path d="M185 258l-30 83 77-54z" fill="#3e5437" stroke="#3e5437" stroke-width="1.51"/><path d="M216 613l-83 36 89 31z" fill="#347975" stroke="#347975" stroke-width="1.51"/><path d="M126 31l6 109 72-105z" fill="#4b6627" stroke="#4b6627" stroke-width="1.51"/><path d="M162 601l-29 48 83-36z" fill="#346662" stroke="#346662" stroke-width="1.51"/><path d="M133 649l25 90 64-59z" fill="#347471" stroke="#347471" stroke-width="1.51"/><path d="M126 31l-25 27 31 82z" fill="#567c27" stroke="#567c27" stroke-width="1.51"/><path d="M149 175l36 83 21-67z" fill="#496734" stroke="#496734" stroke-width="1.51"/><path d="M172-12l-46 43 78 4z" fill="#455c2c" stroke="#455c2c" stroke-width="1.51"/><path d="M78 525l84 76 19-68z" fill="#37564a" stroke="#37564a" stroke-width="1.51"/><path d="M155 341l-87 89 116 20z" fill="#2e3425" stroke="#2e3425" stroke-width="1.51"/><path d="M78 525l103 8 3-83z" fill="#32463c" stroke="#32463c" stroke-width="1.51"/><path d="M68 430l10 95 106-75z" fill="#3c5136" stroke="#3c5136" stroke-width="1.51"/><path d="M149 175l-74 8 110 75z" fill="#4b6628" stroke="#4b6628" stroke-width="1.51"/><path d="M75 183l-8 121 118-46z" fill="#4d6a27" stroke="#4d6a27" stroke-width="1.51"/><path d="M67 304l88 37 30-83z" fill="#3d4c26" stroke="#3d4c26" stroke-width="1.51"/><path d="M129 807l-75 64 128 17z" fill="#3b543f" stroke="#3b543f" stroke-width="1.51"/><path d="M54 871l-1 27 129-10z" fill="#405a39" stroke="#405a39" stroke-width="1.51"/><path d="M53 364l15 66 87-89z" fill="#3e4f27" stroke="#3e4f27" stroke-width="1.51"/><path d="M133 649l-60 62 85 28z" fill="#427d69" stroke="#427d69" stroke-width="1.51"/><path d="M78 525l-1 84 85-8z" fill="#447054" stroke="#447054" stroke-width="1.51"/><path d="M143-94L62-72l110 60z" fill="#405227" stroke="#405227" stroke-width="1.51"/><path d="M62-72l64 103 46-43z" fill="#486128" stroke="#486128" stroke-width="1.51"/><path d="M78 732l51 75 29-68z" fill="#406d58" stroke="#406d58" stroke-width="1.51"/><path d="M73 711l5 21 80 7z" fill="#488163" stroke="#488163" stroke-width="1.51"/><path d="M77 609l56 40 29-48z" fill="#40715e" stroke="#40715e" stroke-width="1.51"/><path d="M101 58l-18 67 49 15z" fill="#5e8d25" stroke="#5e8d25" stroke-width="1.51"/><path d="M67 304l-14 60 102-23z" fill="#455b27" stroke="#455b27" stroke-width="1.51"/><path d="M132 140l-57 43 74-8z" fill="#567c28" stroke="#567c28" stroke-width="1.51"/><path d="M49-111l13 39 81-22z" fill="#486027" stroke="#486027" stroke-width="1.51"/><path d="M62-72L16 52l85 6z" fill="#5e8c26" stroke="#5e8c26" stroke-width="1.51"/><path d="M62-72l39 130 25-27z" fill="#537528" stroke="#537528" stroke-width="1.51"/><path d="M83 125l-8 58 57-43z" fill="#5f8e26" stroke="#5f8e26" stroke-width="1.51"/><path d="M77 609l-4 102 60-62z" fill="#4b8c6b" stroke="#4b8c6b" stroke-width="1.51"/><path d="M31 197l36 107 8-121z" fill="#5f8d26" stroke="#5f8d26" stroke-width="1.51"/><path d="M78 732L54 871l75-64z" fill="#497550" stroke="#497550" stroke-width="1.51"/><path d="M-16-21l32 73L62-72z" fill="#669c24" stroke="#669c24" stroke-width="1.51"/><path d="M10 625l63 86 4-102z" fill="#59a36c" stroke="#59a36c" stroke-width="1.51"/><path d="M-32 743l86 128 24-139z" fill="#5b9b59" stroke="#5b9b59" stroke-width="1.51"/><path d="M68 430l-49 57 59 38z" fill="#4e733d" stroke="#4e733d" stroke-width="1.51"/><path d="M16 52l67 73 18-67z" fill="#669c24" stroke="#669c24" stroke-width="1.51"/><path d="M-32 743l2 122 84 6z" fill="#588d4d" stroke="#588d4d" stroke-width="1.51"/><path d="M31 197l-65 93 101 14z" fill="#649925" stroke="#649925" stroke-width="1.51"/><path d="M10 625l-37 46 100 40z" fill="#66be75" stroke="#66be75" stroke-width="1.51"/><path d="M10 625l67-16 1-84z" fill="#55905a" stroke="#55905a" stroke-width="1.51"/><path d="M19 487l-9 138 68-100z" fill="#599050" stroke="#599050" stroke-width="1.51"/><path d="M31 197l44-14 8-58z" fill="#669c24" stroke="#669c24" stroke-width="1.51"/><path d="M-33 109l64 88 52-72z" fill="#73ba1c" stroke="#73ba1c" stroke-width="1.51"/><path d="M16 52l-49 57 116 16z" fill="#75bc1b" stroke="#75bc1b" stroke-width="1.51"/><path d="M73 711l-105 32 110-11z" fill="#5da668" stroke="#5da668" stroke-width="1.51"/><path d="M-27 671l-5 72 105-32z" fill="#61b36f" stroke="#61b36f" stroke-width="1.51"/><path d="M-30 333l83 31 14-60z" fill="#577e27" stroke="#577e27" stroke-width="1.51"/><path d="M53 364l-66 99 81-33z" fill="#4e6d2d" stroke="#4e6d2d" stroke-width="1.51"/><path d="M-13 463l32 24 49-57z" fill="#557f39" stroke="#557f39" stroke-width="1.51"/><path d="M-34 290l4 43 97-29z" fill="#5a8526" stroke="#5a8526" stroke-width="1.51"/><path d="M4-132L-16-21l65-90z" fill="#5b8627" stroke="#5b8627" stroke-width="1.51"/><path d="M49-111l-65 90 78-51z" fill="#5a8526" stroke="#5a8526" stroke-width="1.51"/><path d="M-32 743l-29 24 31 98z" fill="#4e8054" stroke="#4e8054" stroke-width="1.51"/><path d="M-77 611l87 14 9-138z" fill="#569157" stroke="#569157" stroke-width="1.51"/><path d="M-30 333l17 130 66-99z" fill="#4f6f27" stroke="#4f6f27" stroke-width="1.51"/><path d="M21 923l32-25 1-27z" fill="#507538" stroke="#507538" stroke-width="1.51"/><path d="M-30 865l51 58 33-52z" fill="#58863c" stroke="#58863c" stroke-width="1.51"/><path d="M-52-107l36 86L4-132z" fill="#517228" stroke="#517228" stroke-width="1.51"/><path d="M-13 463l-93 60 125-36z" fill="#4b6f3f" stroke="#4b6f3f" stroke-width="1.51"/><path d="M-106 523l29 88 96-124z" fill="#48704b" stroke="#48704b" stroke-width="1.51"/><path d="M-96 170l62 120 65-93z" fill="#5d8b26" stroke="#5d8b26" stroke-width="1.51"/><path d="M-33 109l-49 33 113 55z" fill="#69a322" stroke="#69a322" stroke-width="1.51"/><path d="M-82 142l-14 28 127 27z" fill="#609025" stroke="#609025" stroke-width="1.51"/><path d="M-52-107l-17 37 53 49z" fill="#4d6a27" stroke="#4d6a27" stroke-width="1.51"/><path d="M-30 333l-78 72 95 58z" fill="#3d4e26" stroke="#3d4e26" stroke-width="1.51"/><path d="M-30 865l-50 49 101 9z" fill="#496937" stroke="#496937" stroke-width="1.51"/><path d="M-16-21l-71 88L16 52z" fill="#609125" stroke="#609125" stroke-width="1.51"/><path d="M-87 67l54 42 49-57z" fill="#659a24" stroke="#659a24" stroke-width="1.51"/><path d="M-61 767l-29 65 60 33z" fill="#466c4a" stroke="#466c4a" stroke-width="1.51"/><path d="M-77 611l50 60 37-46z" fill="#559968" stroke="#559968" stroke-width="1.51"/><path d="M-110 391l2 14 78-72z" fill="#374326" stroke="#374326" stroke-width="1.51"/><path d="M-96 170v123l62-3z" fill="#4d6927" stroke="#4d6927" stroke-width="1.51"/><path d="M-108 405l2 118 93-60z" fill="#3b5035" stroke="#3b5035" stroke-width="1.51"/><path d="M-69-70L-87 67l71-88z" fill="#527428" stroke="#527428" stroke-width="1.51"/><path d="M-100 647l39 120 29-24z" fill="#4a8767" stroke="#4a8767" stroke-width="1.51"/><path d="M-34 290l-62 3 66 40z" fill="#4b6627" stroke="#4b6627" stroke-width="1.51"/><path d="M-100 647l68 96 5-72z" fill="#4f9671" stroke="#4f9671" stroke-width="1.51"/><path d="M-77 611l-23 36 73 24z" fill="#488567" stroke="#488567" stroke-width="1.51"/><path d="M-90 832l10 82 50-49z" fill="#405c3d" stroke="#405c3d" stroke-width="1.51"/><path d="M-96 293l-14 98 80-58z" fill="#3f4f27" stroke="#3f4f27" stroke-width="1.51"/><path d="M-87 67l5 75 49-33z" fill="#609026" stroke="#609026" stroke-width="1.51"/><path d="M-100 647l10 185 29-65z" fill="#42735c" stroke="#42735c" stroke-width="1.51"/><path d="M-106 523l6 124 23-36z" fill="#3d6856" stroke="#3d6856" stroke-width="1.51"/><path d="M-87 67l-9 103 14-28z" fill="#5b8626" stroke="#5b8626" stroke-width="1.51"/><path d="M-96 170l-14 221 14-98z" fill="#405227" stroke="#405227" stroke-width="1.51"/><path d="M-108 405l-2-14 4 132z" fill="#2f392d" stroke="#2f392d" stroke-width="1.51"/></svg>