<svg xmlns="http://www.w3.org/2000/svg" width="567" height="500"><path d="M-53-143l70 6 316 18z" fill="#171717" stroke="#171717" stroke-width="1.51"/><path d="M231 620H-67l566 22z" fill="#823b2f" stroke="#823b2f" stroke-width="1.51"/><path d="M-67 620l-43 1 609 21z" fill="#742f24" stroke="#742f24" stroke-width="1.51"/><path d="M439 627l-208-7 268 22z" fill="#b34434" stroke="#b34434" stroke-width="1.51"/><path d="M-53-143l386 24 341 9z" fill="#362b28" stroke="#362b28" stroke-width="1.51"/><path d="M333-119l129 23 212-14z" fill="#773729" stroke="#773729" stroke-width="1.51"/><path d="M538-79l93-12 43-19z" fill="#6f2b1f" stroke="#6f2b1f" stroke-width="1.51"/><path d="M462-96l76 17 136-31z" fill="#763224" stroke="#763224" stroke-width="1.51"/><path d="M655-65l15 101 4-146z" fill="#6b271d" stroke="#6b271d" stroke-width="1.51"/><path d="M654 109l-24 8 66 99z" fill="#813a2e" stroke="#813a2e" stroke-width="1.51"/><path d="M576 259l80 59 40-102z" fill="#97493a" stroke="#97493a" stroke-width="1.51"/><path d="M670 36l-16 73 42 107z" fill="#7c352a" stroke="#7c352a" stroke-width="1.51"/><path d="M674-110l-4 146 26 180z" fill="#722d22" stroke="#722d22" stroke-width="1.51"/><path d="M593 397l-18 54 129 21z" fill="#e8513a" stroke="#e8513a" stroke-width="1.51"/><path d="M593 397l111 75 1-123z" fill="#d14a36" stroke="#d14a36" stroke-width="1.51"/><path d="M656 318l-63 79 112-48z" fill="#bd4b39" stroke="#bd4b39" stroke-width="1.51"/><path d="M696 216l-40 102 49 31z" fill="#9e4536" stroke="#9e4536" stroke-width="1.51"/><path d="M581 619l-82 23 207-15z" fill="#d13729" stroke="#d13729" stroke-width="1.51"/><path d="M668 528l-87 91 125 8z" fill="#cf3527" stroke="#cf3527" stroke-width="1.51"/><path d="M704 472l-36 56 38 99z" fill="#d13629" stroke="#d13629" stroke-width="1.51"/><path d="M705 349l-1 123 2 155z" fill="#da3f2e" stroke="#da3f2e" stroke-width="1.51"/><path d="M575 451l93 77 36-56z" fill="#e24734" stroke="#e24734" stroke-width="1.51"/><path d="M585 538l-4 81 87-91z" fill="#da412e" stroke="#da412e" stroke-width="1.51"/><path d="M655-65l-40 98 55 3z" fill="#722d22" stroke="#722d22" stroke-width="1.51"/><path d="M630 117l-60 81 126 18z" fill="#894134" stroke="#894134" stroke-width="1.51"/><path d="M570 198l6 61 120-43z" fill="#91493b" stroke="#91493b" stroke-width="1.51"/><path d="M574-4l41 37 40-98z" fill="#753025" stroke="#753025" stroke-width="1.51"/><path d="M575 451l10 87 83-10z" fill="#e54a35" stroke="#e54a35" stroke-width="1.51"/><path d="M615 33l39 76 16-73z" fill="#773226" stroke="#773226" stroke-width="1.51"/><path d="M631-91l24 26 19-45z" fill="#6a261c" stroke="#6a261c" stroke-width="1.51"/><path d="M615 33l15 84 24-8z" fill="#7c362a" stroke="#7c362a" stroke-width="1.51"/><path d="M631-91L574-4l81-61z" fill="#712d22" stroke="#712d22" stroke-width="1.51"/><path d="M551 277l42 120 63-79z" fill="#bb513e" stroke="#bb513e" stroke-width="1.51"/><path d="M576 259l-25 18 105 41z" fill="#a7503f" stroke="#a7503f" stroke-width="1.51"/><path d="M551 277l-42 58 84 62z" fill="#c45843" stroke="#c45843" stroke-width="1.51"/><path d="M503 137l67 61 60-81z" fill="#8e4637" stroke="#8e4637" stroke-width="1.51"/><path d="M615 33L494 64l136 53z" fill="#823b2e" stroke="#823b2e" stroke-width="1.51"/><path d="M494 64l9 73 127-20z" fill="#8c4435" stroke="#8c4435" stroke-width="1.51"/><path d="M538-79l36 75 57-87z" fill="#763125" stroke="#763125" stroke-width="1.51"/><path d="M316 605l-85 15 208 7z" fill="#9d4436" stroke="#9d4436" stroke-width="1.51"/><path d="M574-4l-80 68 121-31z" fill="#803a2c" stroke="#803a2c" stroke-width="1.51"/><path d="M538-79l-22 44 58 31z" fill="#7d3729" stroke="#7d3729" stroke-width="1.51"/><path d="M510 527l71 92 4-81z" fill="#e34934" stroke="#e34934" stroke-width="1.51"/><path d="M575 451l-65 76 75 11z" fill="#ed523b" stroke="#ed523b" stroke-width="1.51"/><path d="M490 444l85 7 18-54z" fill="#ee5b42" stroke="#ee5b42" stroke-width="1.51"/><path d="M509 335l-19 109 103-47z" fill="#e05e45" stroke="#e05e45" stroke-width="1.51"/><path d="M503 137l4 49 63 12z" fill="#974e3e" stroke="#974e3e" stroke-width="1.51"/><path d="M510 527l-11 115 82-23z" fill="#e14733" stroke="#e14733" stroke-width="1.51"/><path d="M507 186l44 91 19-79z" fill="#9b5142" stroke="#9b5142" stroke-width="1.51"/><path d="M490 444l20 83 65-76z" fill="#f85c41" stroke="#f85c41" stroke-width="1.51"/><path d="M570 198l-19 79 25-18z" fill="#9b5142" stroke="#9b5142" stroke-width="1.51"/><path d="M516-35l-22 99 80-68z" fill="#823c2e" stroke="#823c2e" stroke-width="1.51"/><path d="M465 433l25 11 19-109z" fill="#e36148" stroke="#e36148" stroke-width="1.51"/><path d="M467 37l27 27 22-99z" fill="#834031" stroke="#834031" stroke-width="1.51"/><path d="M443 299l66 36 42-58z" fill="#bc5d49" stroke="#bc5d49" stroke-width="1.51"/><path d="M507 186l-64 113 108-22z" fill="#a55a49" stroke="#a55a49" stroke-width="1.51"/><path d="M427 214l16 85 64-113z" fill="#905547" stroke="#905547" stroke-width="1.51"/><path d="M439 627l60 15 11-115z" fill="#dd4a36" stroke="#dd4a36" stroke-width="1.51"/><path d="M462-96l54 61 22-44z" fill="#7f392b" stroke="#7f392b" stroke-width="1.51"/><path d="M17-137l131 45 185-27z" fill="#1e1e1e" stroke="#1e1e1e" stroke-width="1.51"/><path d="M378 604l-62 1 123 22z" fill="#b14736" stroke="#b14736" stroke-width="1.51"/><path d="M494 64l-51 67 60 6z" fill="#88483a" stroke="#88483a" stroke-width="1.51"/><path d="M426 352l39 81 44-98z" fill="#cc5f49" stroke="#cc5f49" stroke-width="1.51"/><path d="M490 444l-70 89 90-6z" fill="#ea5a42" stroke="#ea5a42" stroke-width="1.51"/><path d="M420 533l19 94 71-100z" fill="#d8503a" stroke="#d8503a" stroke-width="1.51"/><path d="M439-53l28 90 49-72z" fill="#783c2f" stroke="#783c2f" stroke-width="1.51"/><path d="M462-96l-23 43 77 18z" fill="#74392c" stroke="#74392c" stroke-width="1.51"/><path d="M465 433l-45 100 70-89z" fill="#e95f45" stroke="#e95f45" stroke-width="1.51"/><path d="M503 137l-60-6 64 55z" fill="#904d3f" stroke="#904d3f" stroke-width="1.51"/><path d="M443 299l-17 53 83-17z" fill="#b65c49" stroke="#b65c49" stroke-width="1.51"/><path d="M443 131l-16 83 80-28z" fill="#894e41" stroke="#894e41" stroke-width="1.51"/><path d="M467 37l-24 94 51-67z" fill="#7f4336" stroke="#7f4336" stroke-width="1.51"/><path d="M420 533l-26 23 45 71z" fill="#c74e3a" stroke="#c74e3a" stroke-width="1.51"/><path d="M426 352l-61 84 100-3z" fill="#c85f49" stroke="#c85f49" stroke-width="1.51"/><path d="M365 436l55 97 45-100z" fill="#d85d46" stroke="#d85d46" stroke-width="1.51"/><path d="M350 35l32 68 85-66z" fill="#633e35" stroke="#633e35" stroke-width="1.51"/><path d="M439-53l-80 30 108 60z" fill="#663a30" stroke="#663a30" stroke-width="1.51"/><path d="M359-23l-9 58 117 2z" fill="#5c3a31" stroke="#5c3a31" stroke-width="1.51"/><path d="M382 103l61 28 24-94z" fill="#734338" stroke="#734338" stroke-width="1.51"/><path d="M427 214l-33 6 49 79z" fill="#835449" stroke="#835449" stroke-width="1.51"/><path d="M333-119l106 66 23-43z" fill="#5c342b" stroke="#5c342b" stroke-width="1.51"/><path d="M349 370l16 66 61-84z" fill="#af5b49" stroke="#af5b49" stroke-width="1.51"/><path d="M394 556l-16 48 61 23z" fill="#be4a38" stroke="#be4a38" stroke-width="1.51"/><path d="M333-119l26 96 80-30z" fill="#51332c" stroke="#51332c" stroke-width="1.51"/><path d="M394 220l33-6 16-83z" fill="#7b4d42" stroke="#7b4d42" stroke-width="1.51"/><path d="M382 103l12 117 49-89z" fill="#71483f" stroke="#71483f" stroke-width="1.51"/><path d="M343 303l83 49 17-53z" fill="#9a5849" stroke="#9a5849" stroke-width="1.51"/><path d="M394 220l-51 83 100-4z" fill="#825549" stroke="#825549" stroke-width="1.51"/><path d="M365 436l-62 46 91 74z" fill="#bb5844" stroke="#bb5844" stroke-width="1.51"/><path d="M365 436l29 120 26-23z" fill="#c85741" stroke="#c85741" stroke-width="1.51"/><path d="M343 303l6 67 77-18z" fill="#985849" stroke="#985849" stroke-width="1.51"/><path d="M333-119l-25 22 51 74z" fill="#3f2f2b" stroke="#3f2f2b" stroke-width="1.51"/><path d="M256 177l53 81 85-38z" fill="#554946" stroke="#554946" stroke-width="1.51"/><path d="M382 103l-97 6 109 111z" fill="#5b433d" stroke="#5b433d" stroke-width="1.51"/><path d="M285 109l-29 68 138 43z" fill="#4c4240" stroke="#4c4240" stroke-width="1.51"/><path d="M309 258l34 45 51-83z" fill="#6a5049" stroke="#6a5049" stroke-width="1.51"/><path d="M316 605l62-1 16-48z" fill="#af4a38" stroke="#af4a38" stroke-width="1.51"/><path d="M303 482l13 123 78-49z" fill="#ab4f3d" stroke="#ab4f3d" stroke-width="1.51"/><path d="M350 35l-65 74 97-6z" fill="#4d3b37" stroke="#4d3b37" stroke-width="1.51"/><path d="M148-92l33 13 152-40z" fill="#242424" stroke="#242424" stroke-width="1.51"/><path d="M125 582l-192 38h298z" fill="#763025" stroke="#763025" stroke-width="1.51"/><path d="M303 482l-52 43 65 80z" fill="#9a4e3f" stroke="#9a4e3f" stroke-width="1.51"/><path d="M181-79l127-18 25-22z" fill="#292929" stroke="#292929" stroke-width="1.51"/><path d="M289-29l61 64 9-58z" fill="#433330" stroke="#433330" stroke-width="1.51"/><path d="M308-97l-19 68 70 6z" fill="#3b302d" stroke="#3b302d" stroke-width="1.51"/><path d="M349 370l-69 28 85 38z" fill="#a25a49" stroke="#a25a49" stroke-width="1.51"/><path d="M280 398l23 84 62-46z" fill="#ad5b49" stroke="#ad5b49" stroke-width="1.51"/><path d="M343 303l-63 95 69-28z" fill="#8c5649" stroke="#8c5649" stroke-width="1.51"/><path d="M289-29l-29 48 90 16z" fill="#373231" stroke="#373231" stroke-width="1.51"/><path d="M260 19l25 90 65-74z" fill="#3a3534" stroke="#3a3534" stroke-width="1.51"/><path d="M196 345l84 53 29-140z" fill="#6e4f47" stroke="#6e4f47" stroke-width="1.51"/><path d="M309 258l-29 140 63-95z" fill="#765249" stroke="#765249" stroke-width="1.51"/><path d="M280 398l-48 30 71 54z" fill="#9d5848" stroke="#9d5848" stroke-width="1.51"/><path d="M179 310l17 35 113-87z" fill="#5d4944" stroke="#5d4944" stroke-width="1.51"/><path d="M251 525l-20 95 85-15z" fill="#8e4538" stroke="#8e4538" stroke-width="1.51"/><path d="M181-79l108 50 19-68z" fill="#292929" stroke="#292929" stroke-width="1.51"/><path d="M256 177l-83 24 136 57z" fill="#414141" stroke="#414141" stroke-width="1.51"/><path d="M173 201l6 109 130-52z" fill="#454342" stroke="#454342" stroke-width="1.51"/><path d="M232 428l19 97 52-43z" fill="#9e5444" stroke="#9e5444" stroke-width="1.51"/><path d="M29 578l-96 42 192-38z" fill="#712c22" stroke="#712c22" stroke-width="1.51"/><path d="M219 158l37 19 29-68z" fill="#3b3b3b" stroke="#3b3b3b" stroke-width="1.51"/><path d="M260 19l-70 57 95 33z" fill="#323232" stroke="#323232" stroke-width="1.51"/><path d="M180-52l80 71 29-48z" fill="#2b2b2b" stroke="#2b2b2b" stroke-width="1.51"/><path d="M181-79l-1 27 109 23z" fill="#272727" stroke="#272727" stroke-width="1.51"/><path d="M232 428l-30 83 49 14z" fill="#984f3f" stroke="#984f3f" stroke-width="1.51"/><path d="M190 76l29 82 66-49z" fill="#353535" stroke="#353535" stroke-width="1.51"/><path d="M196 345l36 83 48-30z" fill="#845144" stroke="#845144" stroke-width="1.51"/><path d="M202 511l29 109 20-95z" fill="#8e4638" stroke="#8e4638" stroke-width="1.51"/><path d="M219 158l-46 43 83-24z" fill="#3a3a3a" stroke="#3a3a3a" stroke-width="1.51"/><path d="M180-52l10 128 70-57z" fill="#2a2a2a" stroke="#2a2a2a" stroke-width="1.51"/><path d="M202 511l-77 71 106 38z" fill="#863f32" stroke="#863f32" stroke-width="1.51"/><path d="M130-25l-8 58 58-85z" fill="#222" stroke="#222" stroke-width="1.51"/><path d="M180-52l-58 85 68 43z" fill="#262626" stroke="#262626" stroke-width="1.51"/><path d="M196 345l-71 30 107 53z" fill="#7b4b3f" stroke="#7b4b3f" stroke-width="1.51"/><path d="M125 375l-1 84 108-31z" fill="#894b3d" stroke="#894b3d" stroke-width="1.51"/><path d="M124 459l78 52 30-83z" fill="#964d3d" stroke="#964d3d" stroke-width="1.51"/><path d="M173 201l-58 79 64 30z" fill="#433e3c" stroke="#433e3c" stroke-width="1.51"/><path d="M120 561l5 21 77-71z" fill="#853d31" stroke="#853d31" stroke-width="1.51"/><path d="M190 76l-76 78 105 4z" fill="#313131" stroke="#313131" stroke-width="1.51"/><path d="M114 154l59 47 46-43z" fill="#353535" stroke="#353535" stroke-width="1.51"/><path d="M124 459l-4 102 82-50z" fill="#8b4335" stroke="#8b4335" stroke-width="1.51"/><path d="M179 310l-54 65 71-30z" fill="#68463e" stroke="#68463e" stroke-width="1.51"/><path d="M100 214l15 66 58-79z" fill="#383838" stroke="#383838" stroke-width="1.51"/><path d="M122 33l-8 121 76-78z" fill="#292929" stroke="#292929" stroke-width="1.51"/><path d="M115 280l10 95 54-65z" fill="#5b413b" stroke="#5b413b" stroke-width="1.51"/><path d="M148-92l32 40 1-27z" fill="#212121" stroke="#212121" stroke-width="1.51"/><path d="M148-92l-18 67 50-27z" fill="#202020" stroke="#202020" stroke-width="1.51"/><path d="M114 154l-14 60 73-13z" fill="#333" stroke="#333" stroke-width="1.51"/><path d="M57 155l57-1 8-121z" fill="#282828" stroke="#282828" stroke-width="1.51"/><path d="M68 453l52 108 4-102z" fill="#884132" stroke="#884132" stroke-width="1.51"/><path d="M68 453l56 6 1-84z" fill="#864638" stroke="#864638" stroke-width="1.51"/><path d="M34-7l96-18 18-67z" fill="#1d1d1d" stroke="#1d1d1d" stroke-width="1.51"/><path d="M17-137L34-7l114-85z" fill="#181818" stroke="#181818" stroke-width="1.51"/><path d="M15 273l2 122 98-115z" fill="#4f3832" stroke="#4f3832" stroke-width="1.51"/><path d="M68 453l-52 86 104 22z" fill="#803a2c" stroke="#803a2c" stroke-width="1.51"/><path d="M66 17l-9 138 65-122z" fill="#222" stroke="#222" stroke-width="1.51"/><path d="M115 280L17 395l108-20z" fill="#623e36" stroke="#623e36" stroke-width="1.51"/><path d="M34-7l32 24 64-42z" fill="#1d1d1d" stroke="#1d1d1d" stroke-width="1.51"/><path d="M66 17l56 16 8-58z" fill="#202020" stroke="#202020" stroke-width="1.51"/><path d="M17 395l51 58 57-78z" fill="#784034" stroke="#784034" stroke-width="1.51"/><path d="M120 561l-91 17 96 4z" fill="#7a3429" stroke="#7a3429" stroke-width="1.51"/><path d="M57 155l43 59 14-60z" fill="#2e2e2e" stroke="#2e2e2e" stroke-width="1.51"/><path d="M16 539l13 39 91-17z" fill="#783327" stroke="#783327" stroke-width="1.51"/><path d="M100 214l-85 59 100 7z" fill="#373534" stroke="#373534" stroke-width="1.51"/><path d="M-33 124l90 31 9-138z" fill="#222" stroke="#222" stroke-width="1.51"/><path d="M57 155l-37 46 80 13z" fill="#2d2d2d" stroke="#2d2d2d" stroke-width="1.51"/><path d="M20 201l-5 72 85-59z" fill="#303030" stroke="#303030" stroke-width="1.51"/><path d="M15 273l-32 109 34 13z" fill="#5c3930" stroke="#5c3930" stroke-width="1.51"/><path d="M17-137L-14-23 34-7z" fill="#161616" stroke="#161616" stroke-width="1.51"/><path d="M34-7l-77 49L66 17z" fill="#1a1a1a" stroke="#1a1a1a" stroke-width="1.51"/><path d="M-43 42l10 82L66 17z" fill="#1c1c1c" stroke="#1c1c1c" stroke-width="1.51"/><path d="M17 395L-2 527l70-74z" fill="#853f30" stroke="#853f30" stroke-width="1.51"/><path d="M-2 527l18 12 52-86z" fill="#7e382b" stroke="#7e382b" stroke-width="1.51"/><path d="M-49 309l32 73 32-109z" fill="#4e352f" stroke="#4e352f" stroke-width="1.51"/><path d="M-66 439l64 88 19-132z" fill="#833c2e" stroke="#833c2e" stroke-width="1.51"/><path d="M-33 124l53 77 37-46z" fill="#272727" stroke="#272727" stroke-width="1.51"/><path d="M-85-97l71 74 31-114z" fill="#111" stroke="#111" stroke-width="1.51"/><path d="M-53-143l-32 46 102-40z" fill="#0e0e0e" stroke="#0e0e0e" stroke-width="1.51"/><path d="M-29 198l44 75 5-72z" fill="#2d2d2d" stroke="#2d2d2d" stroke-width="1.51"/><path d="M-33 124l4 74 49 3z" fill="#272727" stroke="#272727" stroke-width="1.51"/><path d="M-14-23l-29 65L34-7z" fill="#181818" stroke="#181818" stroke-width="1.51"/><path d="M-17 382l-49 57 83-44z" fill="#703a2e" stroke="#703a2e" stroke-width="1.51"/><path d="M16 539l-18-12 31 51z" fill="#773226" stroke="#773226" stroke-width="1.51"/><path d="M-2 527l-65 93 96-42z" fill="#712c21" stroke="#712c21" stroke-width="1.51"/><path d="M-29 198l-20 111 64-36z" fill="#332f2e" stroke="#332f2e" stroke-width="1.51"/><path d="M-85-97l-17 37 88 37z" fill="#111" stroke="#111" stroke-width="1.51"/><path d="M-66 439l-73 94 137-6z" fill="#783326" stroke="#783326" stroke-width="1.51"/><path d="M-139 533l72 87 65-93z" fill="#6f2b20" stroke="#6f2b20" stroke-width="1.51"/><path d="M-129 303l80 6 20-111z" fill="#352e2c" stroke="#352e2c" stroke-width="1.51"/><path d="M-102-60l59 102 29-65z" fill="#151515" stroke="#151515" stroke-width="1.51"/><path d="M-129 180v123l100-105z" fill="#282828" stroke="#282828" stroke-width="1.51"/><path d="M-33 124l-82 28 86 46z" fill="#232323" stroke="#232323" stroke-width="1.51"/><path d="M-49 309l-94 92 126-19z" fill="#5c352c" stroke="#5c352c" stroke-width="1.51"/><path d="M-143 401l77 38 49-57z" fill="#6d372b" stroke="#6d372b" stroke-width="1.51"/><path d="M-129 303l-14 98 94-92z" fill="#4f312a" stroke="#4f312a" stroke-width="1.51"/><path d="M-43 42l-77 35 87 47z" fill="#1b1b1b" stroke="#1b1b1b" stroke-width="1.51"/><path d="M-115 152l-14 28 100 18z" fill="#232323" stroke="#232323" stroke-width="1.51"/><path d="M-139 533l29 88 43-1z" fill="#68241b" stroke="#68241b" stroke-width="1.51"/><path d="M-120 77l5 75 82-28z" fill="#1e1e1e" stroke="#1e1e1e" stroke-width="1.51"/><path d="M-102-60l-18 137 77-35z" fill="#151515" stroke="#151515" stroke-width="1.51"/><path d="M-143 401l2 14 75 24z" fill="#6f3529" stroke="#6f3529" stroke-width="1.51"/><path d="M-141 415l2 118 73-94z" fill="#7a3527" stroke="#7a3527" stroke-width="1.51"/><path d="M-120 77l-9 103 14-28z" fill="#1d1d1d" stroke="#1d1d1d" stroke-width="1.51"/><path d="M-129 180l-14 221 14-98z" fill="#3b2c28" stroke="#3b2c28" stroke-width="1.51"/><path d="M-141 415l-2-14 4 132z" fill="#7a3527" stroke="#7a3527" stroke-width="1.51"/></svg>