<svg xmlns="http://www.w3.org/2000/svg" width="667" height="600"><path d="M207 708l-292 18 473 5z" fill="#2f554e" stroke="#2f554e" stroke-width="1.51"/><path d="M528 696l-79 13 144-8z" fill="#71804a" stroke="#71804a" stroke-width="1.51"/><path d="M449 709l-61 22 205-30z" fill="#708d4f" stroke="#708d4f" stroke-width="1.51"/><path d="M296-122l166 22 151-21z" fill="#5c6433" stroke="#5c6433" stroke-width="1.51"/><path d="M593 701l-205 30 369-8z" fill="#6f704a" stroke="#6f704a" stroke-width="1.51"/><path d="M665 437l81 116 45-120z" fill="#7c7642" stroke="#7c7642" stroke-width="1.51"/><path d="M746 553l6 74 39-194z" fill="#766544" stroke="#766544" stroke-width="1.51"/><path d="M752 627l5 96 34-290z" fill="#755040" stroke="#755040" stroke-width="1.51"/><path d="M296-122l317 1 184-12z" fill="#51472a" stroke="#51472a" stroke-width="1.51"/><path d="M-23-130l319 8 501-11z" fill="#745f32" stroke="#745f32" stroke-width="1.51"/><path d="M613-121l48 19 136-31z" fill="#4c362d" stroke="#4c362d" stroke-width="1.51"/><path d="M661-102l81 115 55-146z" fill="#4d4e44" stroke="#4d4e44" stroke-width="1.51"/><path d="M742 13l6 37 49-183z" fill="#4f6559" stroke="#4f6559" stroke-width="1.51"/><path d="M750 141l-33 22 82 36z" fill="#495146" stroke="#495146" stroke-width="1.51"/><path d="M717 163l-10 85 92-49z" fill="#655b46" stroke="#655b46" stroke-width="1.51"/><path d="M707 248l46 53 46-102z" fill="#82714b" stroke="#82714b" stroke-width="1.51"/><path d="M791 394v39l8-234z" fill="#8e9055" stroke="#8e9055" stroke-width="1.51"/><path d="M753 301l38 93 8-195z" fill="#9d8c54" stroke="#9d8c54" stroke-width="1.51"/><path d="M797-133L748 50l51 149z" fill="#496c61" stroke="#496c61" stroke-width="1.51"/><path d="M748 50l2 91 49 58z" fill="#3f534c" stroke="#3f534c" stroke-width="1.51"/><path d="M665 437l-18 42 99 74z" fill="#866437" stroke="#866437" stroke-width="1.51"/><path d="M664 400l1 37 126-4z" fill="#897a3e" stroke="#897a3e" stroke-width="1.51"/><path d="M664 400l127 33v-39z" fill="#838548" stroke="#838548" stroke-width="1.51"/><path d="M753 301l-89 99 127-6z" fill="#958147" stroke="#958147" stroke-width="1.51"/><path d="M661-102l6 102 75 13z" fill="#645248" stroke="#645248" stroke-width="1.51"/><path d="M647 479l19 62 80 12z" fill="#855535" stroke="#855535" stroke-width="1.51"/><path d="M748 50l-75 16 77 75z" fill="#55544c" stroke="#55544c" stroke-width="1.51"/><path d="M673 66l44 97 33-22z" fill="#504843" stroke="#504843" stroke-width="1.51"/><path d="M746 553l-75 34 81 40z" fill="#7d4438" stroke="#7d4438" stroke-width="1.51"/><path d="M662 296l2 104 89-99z" fill="#a7753f" stroke="#a7753f" stroke-width="1.51"/><path d="M664 671l-71 30 164 22z" fill="#715544" stroke="#715544" stroke-width="1.51"/><path d="M752 627l-88 44 93 52z" fill="#6b5c49" stroke="#6b5c49" stroke-width="1.51"/><path d="M707 248l-45 48 91 5z" fill="#a27143" stroke="#a27143" stroke-width="1.51"/><path d="M671 587l-7 84 88-44z" fill="#7b4639" stroke="#7b4639" stroke-width="1.51"/><path d="M673 66l-29 44 73 53z" fill="#5b423d" stroke="#5b423d" stroke-width="1.51"/><path d="M742 13l-69 53 75-16z" fill="#5e5d53" stroke="#5e5d53" stroke-width="1.51"/><path d="M666 541l5 46 75-34z" fill="#834834" stroke="#834834" stroke-width="1.51"/><path d="M667 0l6 66 69-53z" fill="#695a50" stroke="#695a50" stroke-width="1.51"/><path d="M-21 710l-64 16 292-18z" fill="#497165" stroke="#497165" stroke-width="1.51"/><path d="M589 227l118 21 10-85z" fill="#7a4c38" stroke="#7a4c38" stroke-width="1.51"/><path d="M644 110l-55 117 128-64z" fill="#603832" stroke="#603832" stroke-width="1.51"/><path d="M662 296l-25 100 27 4z" fill="#a56a35" stroke="#a56a35" stroke-width="1.51"/><path d="M647 479l-11 31 30 31z" fill="#8c532e" stroke="#8c532e" stroke-width="1.51"/><path d="M661-102l-49 68 55 34z" fill="#67453c" stroke="#67453c" stroke-width="1.51"/><path d="M589 227l73 69 45-48z" fill="#9a5737" stroke="#9a5737" stroke-width="1.51"/><path d="M588 306l49 90 25-100z" fill="#af7237" stroke="#af7237" stroke-width="1.51"/><path d="M666 541l-106 67 111-21z" fill="#893b2c" stroke="#893b2c" stroke-width="1.51"/><path d="M609 653l55 18 7-84z" fill="#803e34" stroke="#803e34" stroke-width="1.51"/><path d="M667 0l-60 61 66 5z" fill="#6f4d45" stroke="#6f4d45" stroke-width="1.51"/><path d="M607 61l37 49 29-44z" fill="#67473f" stroke="#67473f" stroke-width="1.51"/><path d="M589 227l-1 79 74-10z" fill="#a96f39" stroke="#a96f39" stroke-width="1.51"/><path d="M664 400l-27-4 28 41z" fill="#976c33" stroke="#976c33" stroke-width="1.51"/><path d="M636 510l-76 98 106-67z" fill="#8b4c2e" stroke="#8b4c2e" stroke-width="1.51"/><path d="M560 608l49 45 62-66z" fill="#864531" stroke="#864531" stroke-width="1.51"/><path d="M613-121l-1 87 49-68z" fill="#5c3f32" stroke="#5c3f32" stroke-width="1.51"/><path d="M609 653l-16 48 71-30z" fill="#7a553d" stroke="#7a553d" stroke-width="1.51"/><path d="M612-34l-5 95 60-61z" fill="#755d4d" stroke="#755d4d" stroke-width="1.51"/><path d="M637 396l10 83 18-42z" fill="#906d32" stroke="#906d32" stroke-width="1.51"/><path d="M528 151l61 76 55-117z" fill="#5e4d36" stroke="#5e4d36" stroke-width="1.51"/><path d="M531 555l29 53 76-98z" fill="#8c5c30" stroke="#8c5c30" stroke-width="1.51"/><path d="M547 389l-22 79 112-72z" fill="#968b36" stroke="#968b36" stroke-width="1.51"/><path d="M588 306l-41 83 90 7z" fill="#a68237" stroke="#a68237" stroke-width="1.51"/><path d="M637 396l-112 72 122 11z" fill="#8d7f33" stroke="#8d7f33" stroke-width="1.51"/><path d="M525 468l111 42 11-31z" fill="#8d6f32" stroke="#8d6f32" stroke-width="1.51"/><path d="M607 61l-79 90 116-41z" fill="#61523e" stroke="#61523e" stroke-width="1.51"/><path d="M561 284l27 22 1-79z" fill="#a77b3a" stroke="#a77b3a" stroke-width="1.51"/><path d="M525 468l6 87 105-45z" fill="#8d7432" stroke="#8d7432" stroke-width="1.51"/><path d="M544-34l-29 83 92 12z" fill="#71734f" stroke="#71734f" stroke-width="1.51"/><path d="M515 49l13 102 79-90z" fill="#646644" stroke="#646644" stroke-width="1.51"/><path d="M544-34l63 95 5-95z" fill="#73694d" stroke="#73694d" stroke-width="1.51"/><path d="M462-100l61 33 90-54z" fill="#585d34" stroke="#585d34" stroke-width="1.51"/><path d="M544-34h68l1-87z" fill="#62543b" stroke="#62543b" stroke-width="1.51"/><path d="M523-67l21 33 69-87z" fill="#5f5a39" stroke="#5f5a39" stroke-width="1.51"/><path d="M528 696l65 5 16-48z" fill="#786842" stroke="#786842" stroke-width="1.51"/><path d="M560 608l-32 88 81-43z" fill="#80633c" stroke="#80633c" stroke-width="1.51"/><path d="M561 284l-14 105 41-83z" fill="#b28c3a" stroke="#b28c3a" stroke-width="1.51"/><path d="M528 151l-29 57 90 19z" fill="#736b3b" stroke="#736b3b" stroke-width="1.51"/><path d="M499 208l62 76 28-57z" fill="#91793b" stroke="#91793b" stroke-width="1.51"/><path d="M277 704l-70 4 181 23z" fill="#817d53" stroke="#817d53" stroke-width="1.51"/><path d="M515 49l-34 25 47 77z" fill="#617346" stroke="#617346" stroke-width="1.51"/><path d="M479 11l36 38 29-83z" fill="#728655" stroke="#728655" stroke-width="1.51"/><path d="M482 272l-35 100 100 17z" fill="#aca83b" stroke="#aca83b" stroke-width="1.51"/><path d="M458 625l70 71 32-88z" fill="#82723c" stroke="#82723c" stroke-width="1.51"/><path d="M482 272l65 117 14-105z" fill="#b6993b" stroke="#b6993b" stroke-width="1.51"/><path d="M499 208l-17 64 79 12z" fill="#9b8c3d" stroke="#9b8c3d" stroke-width="1.51"/><path d="M531 555l-73 70 102-17z" fill="#8c6431" stroke="#8c6431" stroke-width="1.51"/><path d="M525 468l-68-5 74 92z" fill="#8c9035" stroke="#8c9035" stroke-width="1.51"/><path d="M457 463l68 5 22-79z" fill="#8ca136" stroke="#8ca136" stroke-width="1.51"/><path d="M447 372l10 91 90-74z" fill="#99a838" stroke="#99a838" stroke-width="1.51"/><path d="M523-67l-44 78 65-45z" fill="#687949" stroke="#687949" stroke-width="1.51"/><path d="M458 625l-9 84 79-13z" fill="#7c8346" stroke="#7c8346" stroke-width="1.51"/><path d="M481 74l-42 94 89-17z" fill="#5c6f40" stroke="#5c6f40" stroke-width="1.51"/><path d="M423 564l35 61 73-70z" fill="#937132" stroke="#937132" stroke-width="1.51"/><path d="M457 463l-34 101 108-9z" fill="#938635" stroke="#938635" stroke-width="1.51"/><path d="M479 212l3 60 17-64z" fill="#8c8a3e" stroke="#8c8a3e" stroke-width="1.51"/><path d="M439 168l60 40 29-57z" fill="#65723d" stroke="#65723d" stroke-width="1.51"/><path d="M462-100l17 111 44-78z" fill="#637944" stroke="#637944" stroke-width="1.51"/><path d="M296-122l103 42 63-20z" fill="#746839" stroke="#746839" stroke-width="1.51"/><path d="M439 168l40 44 20-4z" fill="#787b3e" stroke="#787b3e" stroke-width="1.51"/><path d="M462-100l-56 57 73 54z" fill="#717c49" stroke="#717c49" stroke-width="1.51"/><path d="M479 11l2 63 34-25z" fill="#69844f" stroke="#69844f" stroke-width="1.51"/><path d="M112 693l-133 17 228-2z" fill="#446056" stroke="#446056" stroke-width="1.51"/><path d="M439 168l-85 22 125 22z" fill="#827940" stroke="#827940" stroke-width="1.51"/><path d="M354 190l-5 95 130-73z" fill="#a68842" stroke="#a68842" stroke-width="1.51"/><path d="M406-43L339 79l140-68z" fill="#8b8b58" stroke="#8b8b58" stroke-width="1.51"/><path d="M479 11L339 79l142-5z" fill="#7b8250" stroke="#7b8250" stroke-width="1.51"/><path d="M339 79l100 89 42-94z" fill="#747447" stroke="#747447" stroke-width="1.51"/><path d="M479 212l-130 73 133-13z" fill="#ac9540" stroke="#ac9540" stroke-width="1.51"/><path d="M349 285l98 87 35-100z" fill="#cba73f" stroke="#cba73f" stroke-width="1.51"/><path d="M339 79l7 74 93 15z" fill="#7b6f43" stroke="#7b6f43" stroke-width="1.51"/><path d="M349 285l19 91 79-4z" fill="#cba740" stroke="#cba740" stroke-width="1.51"/><path d="M318 484l105 80 34-101z" fill="#a89039" stroke="#a89039" stroke-width="1.51"/><path d="M365 425l-47 59 139-21z" fill="#ada33a" stroke="#ada33a" stroke-width="1.51"/><path d="M447 372l-82 53 92 38z" fill="#a8a73a" stroke="#a8a73a" stroke-width="1.51"/><path d="M398 615l51 94 9-84z" fill="#907c41" stroke="#907c41" stroke-width="1.51"/><path d="M423 564l-25 51 60 10z" fill="#9e6d36" stroke="#9e6d36" stroke-width="1.51"/><path d="M399-80l7 37 56-57z" fill="#717140" stroke="#717140" stroke-width="1.51"/><path d="M368 376l-3 49 82-53z" fill="#bba83d" stroke="#bba83d" stroke-width="1.51"/><path d="M398 615l-10 116 61-22z" fill="#8e864b" stroke="#8e864b" stroke-width="1.51"/><path d="M318 484l22 87 83-7z" fill="#b28039" stroke="#b28039" stroke-width="1.51"/><path d="M346 153l8 37 85-22z" fill="#817041" stroke="#817041" stroke-width="1.51"/><path d="M-23-130l169 53 150-45z" fill="#233535" stroke="#233535" stroke-width="1.51"/><path d="M289-37l50 116 67-122z" fill="#9e8b5a" stroke="#9e8b5a" stroke-width="1.51"/><path d="M340 571l58 44 25-51z" fill="#aa6e36" stroke="#aa6e36" stroke-width="1.51"/><path d="M318 484l-13 39 35 48z" fill="#b2813a" stroke="#b2813a" stroke-width="1.51"/><path d="M277 704l111 27 10-116z" fill="#9f854d" stroke="#9f854d" stroke-width="1.51"/><path d="M319 595l-42 109 121-89z" fill="#ae7642" stroke="#ae7642" stroke-width="1.51"/><path d="M399-80L289-37l117-6z" fill="#887849" stroke="#887849" stroke-width="1.51"/><path d="M296-122l-7 85 110-43z" fill="#866d41" stroke="#866d41" stroke-width="1.51"/><path d="M340 571l-21 24 79 20z" fill="#b26837" stroke="#b26837" stroke-width="1.51"/><path d="M289-37l-29 74 79 42z" fill="#867a57" stroke="#867a57" stroke-width="1.51"/><path d="M287 308l23 72 39-95z" fill="#d69e43" stroke="#d69e43" stroke-width="1.51"/><path d="M308 189l41 96 5-95z" fill="#b18444" stroke="#b18444" stroke-width="1.51"/><path d="M310 380l55 45 3-49z" fill="#c7a73f" stroke="#c7a73f" stroke-width="1.51"/><path d="M349 285l-39 95 58-4z" fill="#d8a641" stroke="#d8a641" stroke-width="1.51"/><path d="M310 380l8 104 47-59z" fill="#bea63e" stroke="#bea63e" stroke-width="1.51"/><path d="M339 79l-67 51 74 23z" fill="#816c47" stroke="#816c47" stroke-width="1.51"/><path d="M308 189l-21 119 62-23z" fill="#c08d44" stroke="#c08d44" stroke-width="1.51"/><path d="M346 153l-38 36 46 1z" fill="#937243" stroke="#937243" stroke-width="1.51"/><path d="M272 130l36 59 38-36z" fill="#766241" stroke="#766241" stroke-width="1.51"/><path d="M305 523l14 72 21-24z" fill="#b17139" stroke="#b17139" stroke-width="1.51"/><path d="M260 37l12 93 67-51z" fill="#776a4d" stroke="#776a4d" stroke-width="1.51"/><path d="M146-77l101-4 49-41z" fill="#454638" stroke="#454638" stroke-width="1.51"/><path d="M247-81l42 44 7-85z" fill="#665b3f" stroke="#665b3f" stroke-width="1.51"/><path d="M230 312l57-4 21-119z" fill="#ae8244" stroke="#ae8244" stroke-width="1.51"/><path d="M186 202l44 110 78-123z" fill="#806742" stroke="#806742" stroke-width="1.51"/><path d="M310 380l-76 111 84-7z" fill="#9d933e" stroke="#9d933e" stroke-width="1.51"/><path d="M206 646l71 58 42-109z" fill="#846243" stroke="#846243" stroke-width="1.51"/><path d="M305 523l-94 10 108 62z" fill="#976739" stroke="#976739" stroke-width="1.51"/><path d="M211 533l-5 113 113-51z" fill="#814a35" stroke="#814a35" stroke-width="1.51"/><path d="M199 354l35 137 76-111z" fill="#90863f" stroke="#90863f" stroke-width="1.51"/><path d="M234 491l71 32 13-39z" fill="#9c7f3c" stroke="#9c7f3c" stroke-width="1.51"/><path d="M260 37l-35 30 47 63z" fill="#5f5e4c" stroke="#5f5e4c" stroke-width="1.51"/><path d="M287 308l-57 4 80 68z" fill="#b98f43" stroke="#b98f43" stroke-width="1.51"/><path d="M230 312l-31 42 111 26z" fill="#a18541" stroke="#a18541" stroke-width="1.51"/><path d="M272 130l-67 28 103 31z" fill="#5a523e" stroke="#5a523e" stroke-width="1.51"/><path d="M205 158l-19 44 122-13z" fill="#59503f" stroke="#59503f" stroke-width="1.51"/><path d="M226-3l34 40 29-74z" fill="#706e56" stroke="#706e56" stroke-width="1.51"/><path d="M234 491l-23 42 94-10z" fill="#866b3a" stroke="#866b3a" stroke-width="1.51"/><path d="M247-81L226-3l63-34z" fill="#62604a" stroke="#62604a" stroke-width="1.51"/><path d="M206 646l1 62 70-4z" fill="#636049" stroke="#636049" stroke-width="1.51"/><path d="M199 354l-70 91 105 46z" fill="#636e3d" stroke="#636e3d" stroke-width="1.51"/><path d="M225 67l-20 91 67-28z" fill="#4c4e43" stroke="#4c4e43" stroke-width="1.51"/><path d="M226-3l-1 70 35-30z" fill="#5e6352" stroke="#5e6352" stroke-width="1.51"/><path d="M186 202l-49 33 93 77z" fill="#685940" stroke="#685940" stroke-width="1.51"/><path d="M161-51l65 48 21-78z" fill="#464f45" stroke="#464f45" stroke-width="1.51"/><path d="M146-77l15 26 86-30z" fill="#2e3e3c" stroke="#2e3e3c" stroke-width="1.51"/><path d="M124 595l82 51 5-113z" fill="#5b3532" stroke="#5b3532" stroke-width="1.51"/><path d="M125 88l80 70 20-91z" fill="#2e4042" stroke="#2e4042" stroke-width="1.51"/><path d="M125 88l100-21 1-70z" fill="#3d4f4c" stroke="#3d4f4c" stroke-width="1.51"/><path d="M137 235l-29 41 122 36z" fill="#746243" stroke="#746243" stroke-width="1.51"/><path d="M129 445l82 88 23-42z" fill="#62603a" stroke="#62603a" stroke-width="1.51"/><path d="M161-51L125 88 226-3z" fill="#365252" stroke="#365252" stroke-width="1.51"/><path d="M108 276l91 78 31-42z" fill="#826b42" stroke="#826b42" stroke-width="1.51"/><path d="M124 553v42l87-62z" fill="#5b4337" stroke="#5b4337" stroke-width="1.51"/><path d="M-23-130l84 61 85-8z" fill="#344a47" stroke="#344a47" stroke-width="1.51"/><path d="M108 276l16 75 75 3z" fill="#807045" stroke="#807045" stroke-width="1.51"/><path d="M124 351l5 94 70-91z" fill="#6d6f42" stroke="#6d6f42" stroke-width="1.51"/><path d="M125 88l6 70h74z" fill="#233a3e" stroke="#233a3e" stroke-width="1.51"/><path d="M206 646l-94 47 95 15z" fill="#414b45" stroke="#414b45" stroke-width="1.51"/><path d="M129 445l-5 108 87-20z" fill="#5b563a" stroke="#5b563a" stroke-width="1.51"/><path d="M131 158l55 44 19-44z" fill="#2d393a" stroke="#2d393a" stroke-width="1.51"/><path d="M124 595l-12 98 94-47z" fill="#504641" stroke="#504641" stroke-width="1.51"/><path d="M35-33l90 121 36-139z" fill="#405f5d" stroke="#405f5d" stroke-width="1.51"/><path d="M131 158l6 77 49-33z" fill="#42473f" stroke="#42473f" stroke-width="1.51"/><path d="M35-33l-5 77 95 44z" fill="#446361" stroke="#446361" stroke-width="1.51"/><path d="M124 351l-50 56 55 38z" fill="#6f7848" stroke="#6f7848" stroke-width="1.51"/><path d="M73 547l51 6 5-108z" fill="#635e42" stroke="#635e42" stroke-width="1.51"/><path d="M146-77l-85 8 100 18z" fill="#2f4646" stroke="#2f4646" stroke-width="1.51"/><path d="M61-69L35-33l126-18z" fill="#38524f" stroke="#38524f" stroke-width="1.51"/><path d="M30 676l-51 34 133-17z" fill="#52695e" stroke="#52695e" stroke-width="1.51"/><path d="M27 476l46 71 56-102z" fill="#686f49" stroke="#686f49" stroke-width="1.51"/><path d="M131 158l-60 87 66-10z" fill="#535446" stroke="#535446" stroke-width="1.51"/><path d="M30 676l82 17 12-98z" fill="#58554d" stroke="#58554d" stroke-width="1.51"/><path d="M30 598v78l94-81z" fill="#65524a" stroke="#65524a" stroke-width="1.51"/><path d="M125 88l-83 19 89 51z" fill="#2f484b" stroke="#2f484b" stroke-width="1.51"/><path d="M71 245l37 31 29-41z" fill="#6f654a" stroke="#6f654a" stroke-width="1.51"/><path d="M108 276l-86 49 102 26z" fill="#8f7d50" stroke="#8f7d50" stroke-width="1.51"/><path d="M74 407l-47 69 102-31z" fill="#667f4c" stroke="#667f4c" stroke-width="1.51"/><path d="M42 107l29 138 60-87z" fill="#394a49" stroke="#394a49" stroke-width="1.51"/><path d="M124 553l-51-6 51 48z" fill="#644b3e" stroke="#644b3e" stroke-width="1.51"/><path d="M30 44l12 63 83-19z" fill="#3b5857" stroke="#3b5857" stroke-width="1.51"/><path d="M22 325l52 82 50-56z" fill="#838050" stroke="#838050" stroke-width="1.51"/><path d="M73 547l-43 51 94-3z" fill="#6a4c42" stroke="#6a4c42" stroke-width="1.51"/><path d="M71 245l-49 80 86-49z" fill="#8b7a53" stroke="#8b7a53" stroke-width="1.51"/><path d="M5 326l-47 56 64-57z" fill="#8f8756" stroke="#8f8756" stroke-width="1.51"/><path d="M-52 139l48 108 46-140z" fill="#3c514f" stroke="#3c514f" stroke-width="1.51"/><path d="M42 107L-4 247l75-2z" fill="#576053" stroke="#576053" stroke-width="1.51"/><path d="M-4 247l26 78 49-80z" fill="#8c7e58" stroke="#8c7e58" stroke-width="1.51"/><path d="M27 476l-61 92 107-21z" fill="#746b4f" stroke="#746b4f" stroke-width="1.51"/><path d="M22 325l-64 57 116 25z" fill="#8a8c59" stroke="#8a8c59" stroke-width="1.51"/><path d="M-42 382l48 74 68-49z" fill="#7c8d58" stroke="#7c8d58" stroke-width="1.51"/><path d="M6 456l21 20 47-69z" fill="#6c8853" stroke="#6c8853" stroke-width="1.51"/><path d="M-34 568l30 25 77-46z" fill="#755d4d" stroke="#755d4d" stroke-width="1.51"/><path d="M-4 593l34 5 43-51z" fill="#725549" stroke="#725549" stroke-width="1.51"/><path d="M-23-130l58 97 26-36z" fill="#3d5652" stroke="#3d5652" stroke-width="1.51"/><path d="M-4 247l9 79 17-1z" fill="#a18b5b" stroke="#a18b5b" stroke-width="1.51"/><path d="M-4 593l34 83v-78z" fill="#6d5b51" stroke="#6d5b51" stroke-width="1.51"/><path d="M-52-13l82 57 5-77z" fill="#4f6f6a" stroke="#4f6f6a" stroke-width="1.51"/><path d="M-23-130L-52-13l87-20z" fill="#3d5752" stroke="#3d5752" stroke-width="1.51"/><path d="M30 44l-61 16 73 47z" fill="#466662" stroke="#466662" stroke-width="1.51"/><path d="M-31 60l-21 79 94-32z" fill="#3a5655" stroke="#3a5655" stroke-width="1.51"/><path d="M6 456l-87 63 108-43z" fill="#6c764c" stroke="#6c764c" stroke-width="1.51"/><path d="M-81 519l47 49 61-92z" fill="#6b6345" stroke="#6b6345" stroke-width="1.51"/><path d="M-4 593l-76 55 110 28z" fill="#62584d" stroke="#62584d" stroke-width="1.51"/><path d="M-80 648l59 62 51-34z" fill="#546054" stroke="#546054" stroke-width="1.51"/><path d="M-52-13l21 73 61-16z" fill="#476661" stroke="#476661" stroke-width="1.51"/><path d="M-112 327l33 22 75-102z" fill="#8b7446" stroke="#8b7446" stroke-width="1.51"/><path d="M-52 139l-73 55 121 53z" fill="#464c41" stroke="#464c41" stroke-width="1.51"/><path d="M-4 247l-75 102 84-23z" fill="#958151" stroke="#958151" stroke-width="1.51"/><path d="M-79 349l37 33 47-56z" fill="#847d4c" stroke="#847d4c" stroke-width="1.51"/><path d="M-42 382l-63 92L6 456z" fill="#657a46" stroke="#657a46" stroke-width="1.51"/><path d="M-105 474l24 45 87-63z" fill="#61683f" stroke="#61683f" stroke-width="1.51"/><path d="M-133-105l81 92 29-117z" fill="#2c3f3b" stroke="#2c3f3b" stroke-width="1.51"/><path d="M-125 194l13 133 108-80z" fill="#6c5e40" stroke="#6c5e40" stroke-width="1.51"/><path d="M-34 568l-46 80 76-55z" fill="#66473f" stroke="#66473f" stroke-width="1.51"/><path d="M-80 648l-5 78 64-16z" fill="#45594d" stroke="#45594d" stroke-width="1.51"/><path d="M-132 74l80 65 21-79z" fill="#314746" stroke="#314746" stroke-width="1.51"/><path d="M-112 148l-13 46 73-55z" fill="#273535" stroke="#273535" stroke-width="1.51"/><path d="M-52-13l-78 21 99 52z" fill="#3e5854" stroke="#3e5854" stroke-width="1.51"/><path d="M-130 8l-2 66 101-14z" fill="#334947" stroke="#334947" stroke-width="1.51"/><path d="M-81 519l1 129 46-80z" fill="#614237" stroke="#614237" stroke-width="1.51"/><path d="M-132 74l20 74 60-9z" fill="#26393a" stroke="#26393a" stroke-width="1.51"/><path d="M-133-105l3 113 78-21z" fill="#2f4340" stroke="#2f4340" stroke-width="1.51"/><path d="M-79 349l-26 125 63-92z" fill="#6b723f" stroke="#6b723f" stroke-width="1.51"/><path d="M-81 519l-24-45 25 174z" fill="#5c4733" stroke="#5c4733" stroke-width="1.51"/><path d="M-112 327l7 147 26-125z" fill="#6b6a39" stroke="#6b6a39" stroke-width="1.51"/><path d="M-105 474l20 252 5-78z" fill="#563c34" stroke="#563c34" stroke-width="1.51"/><path d="M-112 327l-13-133 20 280z" fill="#766537" stroke="#766537" stroke-width="1.51"/><path d="M-132 74l7 120 13-46z" fill="#1f2f30" stroke="#1f2f30" stroke-width="1.51"/><path d="M-133-105l1 179 2-66z" fill="#304441" stroke="#304441" stroke-width="1.51"/></svg>